<svg xmlns="http://www.w3.org/2000/svg" viewBox="0 0 16.933 16.933"><path fill="#55a1ff" d="M5.377 12.702c-1.417 0-1.776 1.061-2.313 2.081l-.754 1.623h12.313l-.754-1.623c-.537-1.02-.895-2.081-2.313-2.081H5.377z"/><path fill="#488bff" style="line-height:normal;font-variant-ligatures:normal;font-variant-position:normal;font-variant-caps:normal;font-variant-numeric:normal;font-variant-alternates:normal;font-feature-settings:normal;text-indent:0;text-align:start;text-decoration-line:none;text-decoration-style:solid;text-decoration-color:#000;text-transform:none;text-orientation:mixed;shape-padding:0;isolation:auto;mix-blend-mode:normal" d="M-129.236 213.103v.849c0 .545-.598.93-1.049.937-.69.016-.661 1.059 0 1.059 1.148 0 2.108-.839 2.108-1.951v-.894z" color="#000" font-family="sans-serif" font-weight="400" overflow="visible" transform="translate(138.751 -200.401)"/><path fill="#ffc6cd" d="M7.204 11.937v1.478c0 .7.563 1.263 1.263 1.263s1.263-.563 1.263-1.263v-1.478c-.397.134-.82.21-1.263.21a3.94 3.94 0 0 1-1.263-.21z"/><path fill="#ffaecd" style="line-height:normal;font-variant-ligatures:normal;font-variant-position:normal;font-variant-caps:normal;font-variant-numeric:normal;font-variant-alternates:normal;font-feature-settings:normal;text-indent:0;text-align:start;text-decoration-line:none;text-decoration-style:solid;text-decoration-color:#000;text-transform:none;text-orientation:mixed;shape-padding:0;isolation:auto;mix-blend-mode:normal" d="M-129.021 212.338a3.873 3.873 0 0 1-1.883.159c-.299.353-.152 1.187.414 1.19 0 0 .64.042 1.469-.123z" color="#000" font-family="sans-serif" font-weight="400" overflow="visible" transform="translate(138.751 -200.401)"/><path fill="#ffc6cd" d="M4.538 4.974v1.592H3.96a.949.949 0 0 0-.951.951c0 .527.424.951.95.951h.578v.048a3.92 3.92 0 0 0 3.929 3.929 3.92 3.92 0 0 0 3.929-3.93v-.047h.577c.527 0 .95-.424.95-.95a.949.949 0 0 0-.95-.952h-.577V4.974c0-2.24-7.82-2.231-7.858 0z"/><path fill="#ffaecd" style="line-height:normal;font-variant-ligatures:normal;font-variant-position:normal;font-variant-caps:normal;font-variant-numeric:normal;font-variant-alternates:normal;font-feature-settings:normal;text-indent:0;text-align:start;text-decoration-line:none;text-decoration-style:solid;text-decoration-color:#000;text-transform:none;text-orientation:mixed;shape-padding:0;isolation:auto;mix-blend-mode:normal" d="M-128.17 205.315c-1.458.853-3.283 1.63-5.613 1.112v.607a.68.68 0 0 1-.025.177c1.944.365 3.524.116 5.62-.94.162-.086.301-.17.445-.255-.212-.225-.371-.489-.428-.7z" color="#000" font-family="sans-serif" font-weight="400" overflow="visible" transform="translate(138.751 -200.401)"/><path fill="#666" d="M8.17.53C5.575.594 2.745 2.598 3.54 5.57l.06.172v.89c0 .9 1.367.846 1.367 0v-.606c2.33.519 4.155-.26 5.612-1.112.123.458.71 1.17 1.323 1.17v.385c0 .866 1.367.831 1.367 0v-.9c.762-1.314-.258-3.486-1.77-3.403C10.824.995 9.53.496 8.17.53z"/><path fill="#00003a" style="line-height:normal;font-variant-ligatures:normal;font-variant-position:normal;font-variant-caps:normal;font-variant-numeric:normal;font-variant-alternates:normal;font-feature-settings:normal;text-indent:0;text-align:start;text-decoration-line:none;text-decoration-style:solid;text-decoration-color:#000;text-transform:none;text-orientation:mixed;shape-padding:0;isolation:auto;mix-blend-mode:normal" d="M-130.588 200.667c-1.363.033-2.773.569-3.761 1.502s-1.537 2.293-1.115 3.869c.014.05.033.1.05.15v.845c0 1.144 1.895 1.12 1.895 0v-.353c2.141.37 3.878-.261 5.254-1.039.222.569.735.951 1.152.983v.245c0 1.022 1.321 1.204 1.756.509a.675.675 0 0 1 .265.54.679.679 0 0 1-.686.687h-.577c-.172 0-.265.133-.265.312a3.65 3.65 0 0 1-3.664 3.664 3.65 3.65 0 0 1-3.665-3.664c0-.21-.13-.312-.264-.312h-.578a.679.679 0 0 1-.686-.687c0-.388-.518-.426-.529 0 0 .67.547 1.216 1.215 1.216h.335a4.19 4.19 0 0 0 2.644 3.686v.018h-1.562c-.774 0-1.317.316-1.688.752-.698.983-1.088 1.964-1.619 3.105a.265.265 0 0 0 .24.376h12.313c.194 0 .322-.2.24-.376-.439-1.012-.955-2.307-1.619-3.105-.37-.436-.913-.752-1.688-.752h-.704c-.384 0-.427.53 0 .53h.704c.643 0 .988.215 1.285.564.6.858.917 1.64 1.367 2.61h-11.483c.366-.809.883-2.025 1.367-2.61.297-.35.643-.564 1.285-.564h1.562v.448a1.53 1.53 0 0 0 1.528 1.528 1.53 1.53 0 0 0 1.527-1.528v-.996a4.19 4.19 0 0 0 2.644-3.686h.335c.669 0 1.215-.546 1.215-1.215 0-.465-.267-.865-.653-1.068v-.711s.013-.113.046-.192c.345-.729.25-1.61-.107-2.322-.358-.717-1.03-1.248-1.84-1.278-.75-1.185-2.087-1.716-3.47-1.681zm.012.53c1.29-.033 2.476.43 3.096 1.503.05.086.145.137.244.13.626-.034 1.171.404 1.486 1.034.315.63.363 1.415.04 1.973a.264.264 0 0 0-.035.133v.899c0 .536-.839.563-.839 0v-.384a.264.264 0 0 0-.263-.265c-.205 0-.453-.133-.66-.337-.207-.204-.365-.476-.408-.636a.265.265 0 0 0-.389-.16c-1.435.839-3.175 1.582-5.422 1.082a.265.265 0 0 0-.32.257v.607c0 .561-.838.493-.838 0v-.89c-.005-.085-.041-.159-.07-.242-.375-1.395.092-2.52.968-3.348.877-.828 2.178-1.326 3.41-1.357zm-.707 11.789c.32.078.654.125.999.125s.678-.047.998-.125v.83a.99.99 0 0 1-.998.998.99.99 0 0 1-.999-.998z" color="#000" font-family="sans-serif" font-weight="400" overflow="visible" transform="translate(138.751 -200.401)"/></svg>