<svg xmlns="http://www.w3.org/2000/svg" viewBox="0 0 24 24"><path fill="#303C42" d="M24 4.036A4.04 4.04 0 0 0 19.964 0a4.01 4.01 0 0 0-2.853 1.182L15.23 3.063.342 8.026A.5.5 0 0 0 0 8.5c0 1.941.952 4.178 3.535 4.881.173 2 1.634 3.43 3.084 4 .57 1.45 2 2.911 4 3.084C11.322 23.048 13.559 24 15.5 24a.5.5 0 0 0 .474-.342L20.937 8.77l1.88-1.88A4.01 4.01 0 0 0 24 4.035z"/><path fill="#F2F2F2" d="M1.014 8.856l14.35-4.784.835.834L3.91 12.468c-2.368-.57-2.821-2.6-2.896-3.612zM6.882 16.411c-1.13-.481-2.238-1.602-2.357-3.147l12.4-7.631.368.367L6.882 16.411zM7.582 17.125L18 6.707l.367.367-7.632 12.403c-1.542-.119-2.67-1.225-3.153-2.352zM15.144 22.986c-1.012-.075-3.041-.528-3.612-2.896L19.094 7.8l.834.834-4.784 14.351z"/><path d="M7.582 17.125L18 6.707l.367.367-7.632 12.403c-1.542-.119-2.67-1.225-3.153-2.352zM15.144 22.986c-1.012-.075-3.041-.528-3.612-2.896L19.094 7.8l.834.834-4.784 14.351z" opacity=".1"/><path fill="#F2F2F2" d="M20.5 7.793L16.207 3.5l1.61-1.61A3.017 3.017 0 0 1 19.965 1 3.04 3.04 0 0 1 23 4.036c0 .81-.316 1.573-.89 2.146L20.5 7.793z"/><path d="M18.354 5.646L20.5 7.793l1.61-1.61c.574-.574.89-1.337.89-2.147 0-.837-.34-1.596-.89-2.146l-3.756 3.756z" opacity=".1"/><linearGradient id="a" x1="1.749" x2="20.722" y1="4.637" y2="13.484" gradientUnits="userSpaceOnUse"><stop offset="0" stop-color="#FFF" stop-opacity=".2"/><stop offset="1" stop-color="#FFF" stop-opacity="0"/></linearGradient><path fill="url(#a)" d="M24 4.036A4.04 4.04 0 0 0 19.964 0a4.01 4.01 0 0 0-2.853 1.182L15.23 3.063.342 8.026A.5.5 0 0 0 0 8.5c0 1.941.952 4.178 3.535 4.881.173 2 1.634 3.43 3.084 4 .57 1.45 2 2.911 4 3.084C11.322 23.048 13.559 24 15.5 24a.5.5 0 0 0 .474-.342L20.937 8.77l1.88-1.88A4.01 4.01 0 0 0 24 4.035z"/></svg>