<svg xmlns="http://www.w3.org/2000/svg" viewBox="0 0 64 64"><g data-name="Layer 13"><path fill="#4d4d4d" d="M52.86,11.14A29.5,29.5,0,0,0,11.14,52.86,29.5,29.5,0,0,0,52.86,11.14Z"/><path fill="#ccc" d="M26.92 15.26a6 6 0 100 8.53A6 6 0 0026.92 15.26zM28.87 26.6a6 6 0 108.53 0A6 6 0 0028.87 26.6zM43.24 12.83a6 6 0 100 8.54A6.05 6.05 0 0043.24 12.83z"/><path d="M52.86,11.14A29.5,29.5,0,0,0,11.14,52.86,29.5,29.5,0,0,0,52.86,11.14Zm-2.12,39.6A26.51,26.51,0,1,1,58.5,32,26.36,26.36,0,0,1,50.74,50.74Z"/><path d="M26.92 15.26a6 6 0 100 8.53A6 6 0 0026.92 15.26zM24.8 21.67a3 3 0 01-4.29-4.29 3 3 0 014.29 0A3 3 0 0124.8 21.67zM28.87 26.6a6 6 0 108.53 0A6 6 0 0028.87 26.6zM35.28 33a3 3 0 110-4.29A3 3 0 0135.28 33zM34.7 12.83a6 6 0 108.54 0A6.05 6.05 0 0034.7 12.83zm6.42 6.42a3 3 0 110-4.3A3.05 3.05 0 0141.12 19.25z"/></g></svg>