<svg width="243" height="237" viewBox="0 0 243 237" fill="none" xmlns="http://www.w3.org/2000/svg">
<rect width="243" height="237" rx="32" fill="white"/>
<path d="M83.99 102.806V163.894H64.9V121.232H46.308V102.806H83.99ZM83.99 156.092C90.298 167.048 102.084 171.862 119.182 172.526C139.102 173.522 178.444 173.024 201.518 171.198C199.36 175.68 196.206 184.81 195.376 190.62C174.626 191.616 139.268 191.948 119.016 190.952C99.096 190.122 85.65 185.308 75.69 172.526C69.05 179 62.078 185.308 53.778 192.446L44.316 172.692C51.288 168.21 59.422 162.234 66.726 156.092H83.99ZM46.806 53.504L62.078 42.382C71.54 49.686 83.16 60.808 88.306 68.61L71.872 81.226C67.39 73.092 56.268 61.638 46.806 53.504ZM109.222 84.878L126.32 81.226C129.308 86.04 132.13 92.514 133.126 96.83L114.866 100.98C114.368 96.664 111.878 89.858 109.222 84.878ZM100.922 47.86H188.072V61.638H100.922V47.86ZM99.096 119.406H190.23V133.184H99.096V119.406ZM92.29 97.992H196.372V112.102H92.29V97.992ZM89.8 69.938H198.364V84.38H89.8V69.938ZM92.124 141.152H196.704V155.594H92.124V141.152ZM133.79 38.066H153.544V79.068H133.79V38.066ZM133.79 104.964H153.544V166.55H133.79V104.964ZM159.686 80.894L179.274 85.376C175.622 91.518 172.302 97.162 169.812 101.146L153.71 96.996C155.868 92.182 158.524 85.376 159.686 80.894Z" fill="black"/>
</svg>
