<svg xmlns="http://www.w3.org/2000/svg" viewBox="0 0 48 48"><path fill="#CFD7E1" d="M41.9 20c-.7-.5-1.6-.4-2.1.3L27.9 35.4l-5.3-17.6c-.2-.6-.7-1-1.3-1.1-.6-.1-1.2.2-1.5.7L5.7 41.6c-.4.7-.2 1.6.5 2.1.2.1.5.2.8.2.5 0 1-.3 1.3-.7L20.7 22l5.2 17c.2.5.6.9 1.2 1 .5.1 1.1-.1 1.5-.5l13.7-17.4c.4-.6.3-1.6-.4-2.1z"/><circle cx="41" cy="21.2" r="5.7" fill="#FFD15D"/><circle cx="41" cy="21.2" r="2.6" fill="#F3F3F3"/><circle cx="7" cy="42.3" r="5.7" fill="#435B6C"/><circle cx="7" cy="42.3" r="2.6" fill="#F3F3F3"/><circle cx="21.1" cy="18.2" r="5.7" fill="#F3705B"/><circle cx="21.1" cy="18.2" r="2.6" fill="#F3F3F3"/><circle cx="27.3" cy="38.6" r="5.7" fill="#67C6B9"/><circle cx="27.3" cy="38.6" r="2.6" fill="#F3F3F3"/><path fill="#F3705B" d="M41 0c-3.9 0-7 3.1-7 7s7 14.2 7 14.2S48 10.9 48 7s-3.1-7-7-7z"/><circle cx="41" cy="7" r="3.9" fill="#F3F3F3"/><path fill="#FFD15D" d="M7 21.1c-3.9 0-7 3.1-7 7s7 14.2 7 14.2 7-10.3 7-14.2-3.1-7-7-7z"/><circle cx="7" cy="28.2" r="3.9" fill="#F3F3F3"/></svg>