<svg xmlns="http://www.w3.org/2000/svg" viewBox="0 0 64 64"><path d="M57 13a4 4 0 1 0-4 4 4 4 0 0 0 4-4zm-6 0a2 2 0 1 1 2 2 2 2 0 0 1-2-2zM31 37.5a5.506 5.506 0 0 0 5.5 5.5h5a3.5 3.5 0 0 1 0 7H24v2h17.5a5.5 5.5 0 0 0 0-11h-5a3.5 3.5 0 0 1 0-7H53v-2H36.5a5.506 5.506 0 0 0-5.5 5.5zM17 44h-.54a6 6 0 1 0-8.92 0H7a5 5 0 0 0-5 5v10a1 1 0 0 0 1 1h18a1 1 0 0 0 1-1V49a5 5 0 0 0-5-5zm-5-8a4 4 0 1 1-4 4 4 4 0 0 1 4-4zm8 22h-2v-5h-2v5H8v-5H6v5H4v-9a3.009 3.009 0 0 1 3-3h10a3.009 3.009 0 0 1 3 3z"/><path d="M56.513 23.443C58.93 20.428 62 16.01 62 13a9 9 0 0 0-18 0c0 3.01 3.07 7.428 5.487 10.443C47.308 24.026 46 25.127 46 26.5c0 2.3 3.521 3.5 7 3.5s7-1.2 7-3.5c0-1.373-1.308-2.474-3.487-3.057ZM53 6a7.008 7.008 0 0 1 7 7c0 2.972-4.53 8.714-7 11.51-2.47-2.8-7-8.536-7-11.51a7.008 7.008 0 0 1 7-7Zm0 22c-3.281 0-5-1.114-5-1.5 0-.252.915-.986 2.927-1.325.657.763 1.158 1.31 1.342 1.507a1 1 0 0 0 1.462 0c.184-.2.685-.744 1.342-1.507C57.085 25.514 58 26.248 58 26.5c0 .386-1.719 1.5-5 1.5Z"/></svg>