<svg xmlns="http://www.w3.org/2000/svg" viewBox="0 0 24 24"><g data-name="Layer 2"><path fill="#8dd1ff" d="M7,10a5.00588,5.00588,0,0,0-5,5c0,2.51172,3.5918,6.04346,4.3125,6.72559a.99843.99843,0,0,0,1.375,0C8.4082,21.04346,12,17.51172,12,15A5.00588,5.00588,0,0,0,7,10Z"/><circle cx="7" cy="15" r="1.5" fill="#fff"/><path fill="#004fac" d="M7 22a.99731.99731 0 01-.6875-.27441C5.5918 21.043 2 17.51172 2 15a5 5 0 0110 0c0 2.51172-3.5918 6.043-4.3125 6.72559A.99731.99731 0 017 22zM7 12a3.00328 3.00328 0 00-3 3c0 1.05078 1.583 3.10742 3 4.58789C8.416 18.10547 10 16.04883 10 15A3.00328 3.00328 0 007 12zM3 7a1 1 0 01-.707-1.707l3-3A.99989.99989 0 116.707 3.707l-3 3A.99676.99676 0 013 7z"/><path fill="#004fac" d="M6 7a.99676.99676 0 01-.707-.293l-3-3A.99989.99989 0 013.707 2.293l3 3A1 1 0 016 7zM18 22H12a1 1 0 010-2h6a2 2 0 000-4H16.5a3.5 3.5 0 010-7h2a1.5 1.5 0 000-3H10a1 1 0 010-2h8.5a3.5 3.5 0 010 7h-2a1.5 1.5 0 000 3H18a4 4 0 010 8z"/></g></svg>