<svg xmlns="http://www.w3.org/2000/svg" viewBox="0 0 60 60"><path fill="#3a4654" d="M45.78 45.305c0 2.89-2.35 5.24-5.24 5.24H27.47c-.15-.69-.37-1.36-.65-2h13.72a3.24 3.24 0 0 0 3.24-3.24c0-1.79-1.45-3.25-3.24-3.25h-9.18c-2.89 0-5.25-2.35-5.25-5.24s2.36-5.25 5.25-5.25H41.8c.63.82 1.09 1.4 1.28 1.63.14.17.33.29.54.34-.07.02-.15.03-.23.03H31.36c-1.79 0-3.25 1.46-3.25 3.25s1.46 3.24 3.25 3.24h9.18c2.89 0 5.24 2.35 5.24 5.25z"/><path fill="#2c79c1" d="M43.86 6.115c-5.59 0-10.14 4.55-10.14 10.15 0 4.23 5.47 11.88 8.08 15.3.63.82 1.09 1.4 1.28 1.63a1.003 1.003 0 0 0 .78.37c.3 0 .59-.13.78-.36.96-1.19 9.36-11.69 9.36-16.94 0-5.6-4.55-10.15-10.14-10.15zm0 15.15c-2.76 0-5.01-2.24-5.01-5s2.25-5.01 5.01-5.01 5.01 2.25 5.01 5.01-2.25 5-5.01 5zm-16.12 31.62c0 .26-.11.52-.3.71-.18.19-.44.29-.7.29H7c-.26 0-.52-.1-.71-.29-.18-.19-.29-.45-.29-.71.03-4.78 3.11-8.93 7.67-10.34.43-.13.9.05 1.14.43l2.06 3.3 2.06-3.3c.24-.38.71-.56 1.14-.43 3.09.96 5.51 3.18 6.75 6 .28.64.5 1.31.65 2 .17.76.26 1.54.27 2.34z"/><circle cx="16.87" cy="35.995" r="6" fill="#2c79c1"/></svg>