<svg xmlns="http://www.w3.org/2000/svg" viewBox="0 0 64 64"><path fill="#222" d="M13.991 61.421a1.488 1.488 0 0 1-.645-.147c-.413-.2-10.119-4.977-10.119-16.618A10.778 10.778 0 0 1 13.993 33.89a1.5 1.5 0 1 1 0 3 7.775 7.775 0 0 0-7.766 7.766 15.817 15.817 0 0 0 8.418 13.914 1.5 1.5 0 0 1-.654 2.851zm36.017-31.31a1.5 1.5 0 0 1-.651-2.853 15.816 15.816 0 0 0 8.416-13.914 7.775 7.775 0 0 0-7.766-7.765 1.5 1.5 0 0 1 0-3 10.778 10.778 0 0 1 10.766 10.765c0 11.642-9.706 16.422-10.119 16.619a1.493 1.493 0 0 1-.646.148zm-.747 31.31H45.7a1.5 1.5 0 0 1 0-3h3.559a6.788 6.788 0 0 0 1.766-.232 1.5 1.5 0 0 1 .782 2.9 9.788 9.788 0 0 1-2.546.332zm-9.3 0h-5.743a1.5 1.5 0 0 1 0-3h5.742a1.5 1.5 0 0 1 0 3zm-11.483 0h-5.744a1.5 1.5 0 0 1 0-3h5.743a1.5 1.5 0 0 1 0 3zm27.551-3.508a1.5 1.5 0 0 1-1.229-2.366 6.737 6.737 0 0 0 1.237-3.9c0-.186-.007-.363-.02-.538a1.5 1.5 0 1 1 2.99-.233c.019.252.03.507.03.764a9.731 9.731 0 0 1-1.786 5.643 1.5 1.5 0 0 1-1.223.63zM55.2 47.362a1.5 1.5 0 0 1-1.075-.454 6.781 6.781 0 0 0-4.142-2.015 1.5 1.5 0 0 1 .315-2.984 9.788 9.788 0 0 1 5.977 2.906 1.5 1.5 0 0 1-1.075 2.547zm-10.8-2.507h-4.659a8.346 8.346 0 0 1-1.317-.1 1.5 1.5 0 0 1 .472-2.963 5.381 5.381 0 0 0 .845.066H44.4a1.5 1.5 0 0 1 0 3zm-10.412-3.12a1.5 1.5 0 0 1-1.257-.681 8.4 8.4 0 0 1-1.082-6.7 1.5 1.5 0 1 1 2.9.76 5.4 5.4 0 0 0 .693 4.305 1.5 1.5 0 0 1-1.256 2.319zm2.6-9.856a1.5 1.5 0 0 1-.691-2.832 8.408 8.408 0 0 1 3.849-.937H42.2a1.5 1.5 0 0 1 0 3h-2.459a5.341 5.341 0 0 0-2.47.6 1.486 1.486 0 0 1-.689.169z"/><path fill="#222" d="M13.994 61.422a1.5 1.5 0 0 1-.648-2.854 15.816 15.816 0 0 0 8.413-13.912 7.775 7.775 0 0 0-7.766-7.766 1.5 1.5 0 0 1 0-3 10.777 10.777 0 0 1 10.766 10.766c0 11.641-9.7 16.421-10.118 16.618a1.483 1.483 0 0 1-.647.148Z"/><path fill="#222" d="M13.993 49.5a4.84 4.84 0 1 1 4.839-4.839 4.845 4.845 0 0 1-4.839 4.839zm0-6.679a1.84 1.84 0 1 0 1.839 1.84 1.843 1.843 0 0 0-1.839-1.845zM50.005 30.11a1.489 1.489 0 0 1-.646-.147c-.413-.2-10.118-4.977-10.118-16.619A10.777 10.777 0 0 1 50.007 2.579a1.5 1.5 0 1 1 0 3 7.775 7.775 0 0 0-7.766 7.765 15.818 15.818 0 0 0 8.417 13.915 1.5 1.5 0 0 1-.653 2.851z"/><path fill="#222" d="M50.007 18.184a4.84 4.84 0 1 1 4.84-4.84 4.845 4.845 0 0 1-4.84 4.84Zm0-6.679a1.84 1.84 0 1 0 1.84 1.839 1.841 1.841 0 0 0-1.84-1.839Z"/></svg>