<svg width="158" height="155" viewBox="0 0 158 155" fill="none" xmlns="http://www.w3.org/2000/svg">
<path d="M39.99 64.806V125.894H20.9V83.232H2.308V64.806H39.99ZM39.99 118.092C46.298 129.048 58.084 133.862 75.182 134.526C95.102 135.522 134.444 135.024 157.518 133.198C155.36 137.68 152.206 146.81 151.376 152.62C130.626 153.616 95.268 153.948 75.016 152.952C55.096 152.122 41.65 147.308 31.69 134.526C25.05 141 18.078 147.308 9.778 154.446L0.316 134.692C7.288 130.21 15.422 124.234 22.726 118.092H39.99ZM2.806 15.504L18.078 4.382C27.54 11.686 39.16 22.808 44.306 30.61L27.872 43.226C23.39 35.092 12.268 23.638 2.806 15.504ZM65.222 46.878L82.32 43.226C85.308 48.04 88.13 54.514 89.126 58.83L70.866 62.98C70.368 58.664 67.878 51.858 65.222 46.878ZM56.922 9.86H144.072V23.638H56.922V9.86ZM55.096 81.406H146.23V95.184H55.096V81.406ZM48.29 59.992H152.372V74.102H48.29V59.992ZM45.8 31.938H154.364V46.38H45.8V31.938ZM48.124 103.152H152.704V117.594H48.124V103.152ZM89.79 0.0659939H109.544V41.068H89.79V0.0659939ZM89.79 66.964H109.544V128.55H89.79V66.964ZM115.686 42.894L135.274 47.376C131.622 53.518 128.302 59.162 125.812 63.146L109.71 58.996C111.868 54.182 114.524 47.376 115.686 42.894Z" fill="black"/>
</svg>
