<svg version="1.1" id="Layer_1" xmlns="http://www.w3.org/2000/svg" xmlns:xlink="http://www.w3.org/1999/xlink" x="0px" y="0px"
	 width="100%" viewBox="0 0 736 736" enable-background="new 0 0 736 736" xml:space="preserve">
<path fill="#000000" opacity="1.000000" stroke="none" 
	d="
M737.000000,65.000000 
	C737.000000,289.000000 737.000000,513.000000 737.000000,737.000000 
	C731.935974,737.000000 726.939148,737.000000 721.294556,736.716736 
	C719.801453,734.903503 718.337036,734.145264 716.929077,733.227173 
	C707.857422,727.312195 699.089355,720.985535 692.864685,711.900391 
	C681.829041,695.793152 672.781006,678.598389 665.174011,660.624817 
	C660.329102,649.177368 661.744080,647.175415 674.092957,647.829651 
	C680.004211,648.142822 685.940796,648.044922 692.250977,645.157959 
	C668.564514,622.581421 653.890198,595.284241 645.240173,564.547913 
	C642.296753,565.653625 641.467224,567.542542 640.296326,569.113098 
	C634.453369,576.950317 628.968933,584.964294 620.741333,590.824829 
	C609.421326,598.888123 597.110535,604.266968 583.656128,607.418762 
	C574.035095,609.672607 564.455505,611.181946 554.539124,609.520203 
	C547.210693,608.292114 539.727295,605.669495 533.159058,612.346680 
	C530.763977,614.781372 529.430298,616.277100 532.097473,619.170837 
	C533.948792,621.179382 535.220947,623.596008 534.115234,626.478516 
	C528.097351,642.167358 525.047913,658.693054 520.781799,674.860779 
	C519.230713,680.739258 516.863831,684.030762 510.945801,684.859070 
	C509.555450,685.053650 507.666748,685.358948 507.709564,687.345886 
	C507.755798,689.490051 509.608368,689.983215 511.287659,690.069153 
	C515.286682,690.273743 517.353699,692.764343 519.380554,695.852783 
	C524.527161,703.694702 527.068542,712.741821 531.387512,720.962708 
	C534.076050,726.080200 537.141357,731.102722 538.000000,737.000000 
	C527.312439,737.000000 516.624878,737.000000 505.644043,736.738892 
	C507.494385,726.200500 506.429230,716.029663 504.710510,705.799988 
	C503.529419,698.770020 498.819977,693.025635 498.525635,685.587524 
	C498.151306,676.129333 491.721771,670.389160 482.365875,671.218994 
	C469.621613,672.349487 460.558716,665.450989 451.334900,658.529358 
	C449.957153,657.495544 449.067383,655.924500 449.113983,654.208740 
	C449.261536,648.778442 445.954468,646.082825 441.510651,644.263306 
	C436.908905,642.379211 433.289368,639.429260 430.403839,635.327332 
	C427.998505,631.907959 424.562317,630.265869 420.148224,630.171448 
	C410.678528,629.969055 401.240265,630.899414 391.748688,630.429749 
	C385.147552,630.103149 378.471680,630.892700 371.854614,631.473083 
	C369.120819,631.712769 365.863922,631.891418 364.673767,635.093140 
	C362.531250,640.856934 358.496002,642.969116 352.462891,643.422546 
	C346.219391,643.891724 343.985657,647.685852 345.232635,653.937378 
	C346.109100,658.331360 347.264008,662.671326 348.347076,667.022339 
	C351.482971,679.619995 355.063904,692.037659 361.530670,703.458557 
	C363.351532,706.674316 365.620850,707.964111 369.186676,707.672546 
	C384.586609,706.413208 400.001526,705.330627 415.393768,703.986511 
	C430.456787,702.671204 445.479950,700.850464 460.558044,699.777588 
	C468.365509,699.222107 470.216339,702.151733 468.562714,709.913391 
	C466.625702,719.005188 463.098755,727.708496 462.000000,737.000000 
	C458.638702,737.000000 455.277435,737.000000 451.522705,736.618286 
	C452.812592,729.294067 454.511932,722.355347 456.173126,715.407532 
	C457.132935,711.393188 455.982239,710.061401 451.952454,710.479614 
	C445.677460,711.130737 439.397583,711.743774 433.132904,712.484192 
	C411.511383,715.039734 389.838959,716.952759 368.078827,717.804382 
	C361.377045,718.066711 356.342712,715.729675 352.813965,709.592773 
	C344.995758,695.995972 340.806824,681.164795 337.474335,666.063782 
	C334.106354,650.801880 330.586243,649.051147 316.455353,656.301941 
	C312.719147,658.218994 311.111572,660.975159 312.640350,664.823303 
	C315.047333,670.882019 312.669342,675.355774 308.788818,679.759949 
	C302.853699,686.495850 297.309235,693.579712 290.275757,699.278076 
	C287.704987,701.360901 286.581726,703.999756 288.126373,707.236816 
	C289.940826,711.039185 289.602478,714.902771 289.069763,718.955750 
	C288.229462,725.348877 289.132812,731.543823 293.000000,737.000000 
	C279.979095,737.000000 266.958221,737.000000 253.426819,736.595581 
	C254.503754,725.498657 258.549011,715.386902 260.393402,704.766785 
	C261.412933,698.896118 261.450256,692.692444 268.513916,689.866882 
	C265.637146,687.240112 264.516602,684.342224 263.695374,681.219910 
	C260.655548,669.662598 256.384460,658.466187 254.246628,646.625671 
	C252.815979,638.702026 254.972366,634.161316 262.582428,631.734558 
	C266.076294,630.620483 270.004639,630.813904 273.625092,628.389465 
	C270.477478,626.420349 267.304230,625.898987 264.494720,624.587402 
	C255.707260,620.485229 247.840500,619.015503 238.568146,625.196045 
	C229.820435,631.026917 219.003586,632.692688 208.293823,634.120911 
	C189.388840,636.642090 171.519577,635.253113 155.062805,624.827637 
	C152.597687,623.265930 151.436279,624.282349 149.778152,626.246399 
	C143.251312,633.977234 135.539963,640.123657 125.525986,642.825012 
	C119.699471,644.396851 116.191071,641.326599 118.267372,635.775085 
	C122.306435,624.975525 118.932373,615.083008 115.002304,605.406921 
	C113.791298,602.425293 113.398895,598.084229 108.768219,596.512390 
	C101.097015,618.747681 91.470299,639.920410 78.187614,659.799622 
	C85.041481,662.566040 91.147957,661.844421 97.209953,661.086975 
	C104.486404,660.177917 107.679131,664.090698 105.236748,671.211609 
	C102.918655,677.970215 100.754227,684.793518 98.125374,691.431213 
	C91.952980,707.016174 86.371933,722.892334 77.000000,737.000000 
	C51.696980,737.000000 26.393955,737.000000 1.000000,737.000000 
	C1.000000,640.645813 1.000000,544.291565 1.225302,447.616394 
	C3.630031,448.904877 4.271321,446.959259 5.269353,445.689331 
	C7.593412,442.732208 10.456473,441.312805 14.400228,441.904114 
	C23.271280,443.234192 28.933992,436.709534 26.247786,428.080353 
	C23.504927,419.269135 24.010254,411.895477 32.604588,406.236359 
	C37.000179,403.341980 37.606873,397.401947 33.789627,394.574890 
	C26.893291,389.467468 24.729467,381.689911 20.696545,374.886993 
	C15.718841,366.490387 10.968802,358.249512 7.671381,348.862640 
	C3.279419,336.359924 3.729456,324.061462 4.955187,311.417633 
	C5.691169,303.825714 11.561899,299.707458 16.032345,294.738800 
	C19.421850,290.971588 21.363506,286.934113 22.162893,281.955048 
	C23.148682,275.815002 22.729527,269.647156 23.258204,263.510376 
	C24.104912,253.681961 22.598248,244.931976 14.558511,237.717743 
	C7.692582,231.556793 2.677955,224.004807 3.891141,213.710907 
	C4.717809,206.696609 6.080857,205.160278 12.014185,208.571274 
	C17.304226,211.612473 20.381155,209.670471 23.464977,205.740891 
	C25.109669,203.645142 27.328482,201.823868 28.380125,199.472580 
	C31.266005,193.020233 36.344723,190.010925 42.933151,188.637970 
	C46.171028,187.963226 48.960323,186.133621 49.628551,182.654480 
	C50.123657,180.076691 49.864655,177.352493 49.925430,174.693146 
	C50.046696,169.387207 53.705185,164.029633 58.712093,163.497650 
	C68.005928,162.510117 70.264153,155.413589 72.440094,148.467056 
	C75.750053,137.900223 78.192001,127.053543 82.580650,116.838799 
	C86.102188,108.642296 83.384377,104.571144 74.656715,105.278221 
	C72.142189,105.481926 69.388855,106.091492 68.067307,103.214943 
	C66.651634,100.133560 67.745476,97.214378 70.022514,95.006081 
	C73.795341,91.347183 78.208115,89.599998 83.686020,90.662300 
	C92.680641,92.406570 96.105911,91.166138 100.233040,82.778778 
	C105.054253,72.980865 112.842537,69.612083 122.992592,69.882545 
	C135.659561,70.220062 148.417542,70.854546 160.780685,73.215172 
	C174.232635,75.783699 187.343628,74.538071 200.512955,72.916100 
	C208.735092,71.903427 216.923096,71.177933 224.817383,73.428032 
	C236.988770,76.897224 250.115295,75.586136 261.828217,81.193756 
	C263.371307,81.932510 265.454437,81.885971 267.240631,81.714668 
	C274.857391,80.984161 282.453339,80.109207 290.046021,79.080345 
	C304.303192,77.148369 317.983582,72.804710 332.051758,70.211166 
	C338.169952,69.083244 343.462616,66.717072 348.031738,62.572350 
	C352.572083,58.453716 357.875824,55.803406 363.811371,54.311314 
	C374.401215,51.649212 385.091095,52.224403 395.531311,54.435848 
	C403.834625,56.194649 412.088409,56.671616 420.359283,55.882595 
	C433.780609,54.602234 447.334595,55.009300 460.664276,52.389256 
	C464.844604,51.567581 469.348663,51.673794 473.617523,52.144489 
	C493.404785,54.326275 513.218811,53.321388 533.030762,53.064060 
	C540.384949,52.968540 547.098633,51.099937 553.254456,46.879574 
	C558.059082,43.585484 563.148010,40.442516 569.198303,40.175156 
	C588.494812,39.322422 607.798584,38.040943 627.108459,39.891983 
	C638.000549,40.936089 647.459106,44.540165 653.895386,54.178631 
	C656.188171,57.612171 659.211914,60.743355 663.645203,61.526920 
	C668.506592,62.386173 671.522644,65.468719 674.075317,69.374557 
	C679.799561,78.132889 682.427429,78.655617 691.597656,73.380997 
	C698.702332,69.294518 705.999023,66.534714 714.434082,69.453705 
	C718.149170,70.739342 721.986755,70.050156 725.605774,68.298538 
	C729.200439,66.558731 732.865051,64.931747 737.000000,65.000000 
M675.784790,394.382477 
	C674.316223,391.510559 671.993530,389.543457 668.862488,387.158356 
	C670.099365,391.760803 673.663879,392.779114 676.492554,395.473572 
	C679.475403,398.120636 684.439392,399.314056 683.128540,405.111450 
	C685.119080,399.669067 682.710510,396.471710 675.784790,394.382477 
M83.198189,533.858521 
	C84.062851,538.384155 83.847855,543.183350 86.612289,547.227661 
	C85.052322,542.580322 85.661659,537.384949 82.950012,532.084351 
	C82.099854,520.659363 83.205490,509.208344 82.846703,497.733551 
	C82.041527,498.270813 81.556145,498.845245 81.551971,499.423187 
	C81.479797,509.417664 81.414848,519.413025 81.508072,529.406738 
	C81.519470,530.628113 82.448929,531.840881 83.198189,533.858521 
M79.950302,240.051941 
	C79.954430,231.932327 79.942940,223.812668 79.969261,215.693115 
	C79.982368,211.648651 79.631157,207.799454 75.257690,205.705750 
	C78.491020,208.367126 78.448837,211.929642 78.387642,215.601135 
	C78.277161,222.229630 78.360550,228.861465 78.376640,235.491867 
	C78.381462,237.477875 78.236366,239.520187 80.188553,241.923279 
	C79.760574,255.979050 82.996017,269.379364 87.420815,282.569916 
	C84.560555,269.373627 81.357521,256.237335 81.070129,242.628128 
	C81.058426,242.073502 80.377174,241.533020 79.950302,240.051941 
M683.371826,621.538940 
	C687.805786,627.872986 692.903198,633.502319 701.044617,638.003845 
	C699.361389,636.093506 698.742432,635.064209 697.844971,634.427612 
	C693.371521,631.254395 689.130066,627.871704 686.236755,623.089966 
	C685.491211,621.857849 684.256287,621.383667 682.839478,620.327820 
	C675.990479,609.315002 669.247986,598.237366 662.663757,587.062195 
	C668.146301,599.146790 674.517090,610.695374 683.371826,621.538940 
M87.524681,625.459473 
	C82.210335,634.428467 77.744049,643.898987 71.172348,652.128357 
	C69.389862,654.360535 66.640953,655.971130 66.328430,659.424988 
	C65.652878,666.890991 68.908760,670.208191 78.563400,671.105652 
	C76.517921,670.195862 74.379448,669.517639 72.280609,668.733337 
	C66.785896,666.680298 65.211609,660.516235 68.960457,656.315430 
	C77.223351,647.056458 83.455017,636.541565 88.387543,624.446655 
	C94.148689,612.877686 98.675056,600.855164 102.326035,588.446533 
	C103.422226,584.720886 103.129051,582.278076 99.864243,579.917236 
	C101.507469,587.994385 99.328056,595.241150 96.655991,602.393005 
	C93.828651,609.960327 90.909164,617.493225 87.524681,625.459473 
M359.189087,135.720444 
	C360.813721,139.400574 362.438385,143.080688 364.063019,146.760818 
	C364.501648,141.881958 361.220856,138.676788 358.746063,134.350037 
	C355.821930,127.047012 348.561066,124.797585 342.123169,121.145561 
	C345.325195,118.775269 348.306885,120.118652 351.012451,119.442093 
	C342.838043,118.371643 326.453766,119.539375 320.241943,121.847275 
	C335.505981,120.822456 349.495941,121.590912 359.189087,135.720444 
M705.264893,711.591492 
	C708.960266,715.926758 712.906189,719.934937 718.608643,721.658020 
	C713.114746,719.304504 709.764343,714.249695 704.609985,710.444458 
	C693.943970,696.147156 685.291565,680.640625 677.203430,664.434631 
	C676.717285,666.350830 677.600464,667.580994 678.161865,668.889587 
	C683.158203,680.536499 690.288208,690.981018 696.916382,701.687317 
	C699.045166,705.125793 701.125305,708.928711 705.264893,711.591492 
M591.829041,115.967842 
	C595.212036,115.510208 597.462219,116.631775 599.905396,119.401901 
	C604.433533,124.536057 607.295776,130.411255 609.790039,136.570999 
	C611.071960,139.736725 612.932739,141.082794 616.324768,139.925156 
	C621.018250,138.323395 625.881653,137.496048 630.803467,136.798691 
	C627.251587,136.668350 623.827820,136.030151 620.218628,137.553162 
	C617.142761,138.851151 612.831055,140.144958 611.151428,135.828171 
	C608.654785,129.411407 605.490967,123.641731 601.011536,118.370308 
	C597.268921,113.965988 596.038940,113.273109 590.444397,116.486336 
	C587.648865,122.762512 585.245911,129.165695 583.405884,135.751007 
	C583.822571,135.889160 584.239197,136.027313 584.655823,136.165466 
	C586.765808,129.460571 588.875793,122.755661 591.829041,115.967842 
M126.440285,175.491669 
	C131.254288,179.668442 136.930099,182.412476 142.453049,185.412964 
	C137.485550,181.089890 132.028275,177.571548 125.761978,174.385895 
	C125.233925,173.766251 124.762024,173.086151 124.169487,172.535965 
	C113.374832,162.512695 101.207588,153.829498 93.006226,141.266937 
	C90.384781,137.251495 86.987999,135.046051 82.583588,136.716202 
	C78.747810,138.170731 78.328362,142.232010 78.332726,146.002914 
	C78.341217,153.335175 78.340958,160.667450 78.354088,167.999695 
	C78.357559,169.937195 78.609406,171.948685 75.355202,173.167328 
	C78.946877,173.138153 80.064148,172.070221 80.290207,169.543274 
	C80.561729,166.508148 79.681229,163.512970 80.005417,160.587997 
	C80.703758,154.287109 78.348137,147.588623 82.621246,141.714966 
	C86.372246,136.559006 87.666290,136.756317 91.599037,142.026428 
	C101.211853,154.908188 112.634140,165.986511 126.440285,175.491669 
M545.445679,407.965057 
	C545.338745,408.091583 545.218689,408.209290 545.126892,408.345978 
	C543.487915,410.786987 538.582397,410.957062 539.214417,414.370178 
	C539.866638,417.892029 544.290649,416.652985 546.965576,417.608704 
	C561.076721,422.650482 575.848083,424.086914 590.670227,424.087494 
	C611.775940,424.088287 632.352966,420.571869 652.021118,412.594635 
	C658.120422,410.120850 663.990784,407.227112 669.342773,402.685303 
	C658.558350,391.228058 651.332825,378.393158 645.030396,364.637390 
	C637.368225,347.913727 628.055664,331.950714 617.377808,316.822327 
	C604.623352,298.751740 589.958557,282.709381 572.160583,269.420929 
	C564.301880,263.553436 556.252258,257.916718 548.620789,251.744492 
	C546.141663,249.739380 544.239685,247.087372 546.822571,244.051941 
	C549.245422,241.204498 551.631653,243.368866 553.792053,244.924271 
	C558.380554,248.227722 563.064087,251.414383 567.493225,254.921036 
	C581.550171,266.050293 596.682190,276.135132 607.731201,290.473297 
	C615.839905,300.995911 617.948730,299.009552 622.290588,287.937531 
	C628.192383,272.887268 628.805969,256.748169 630.358704,241.000824 
	C632.218323,222.141083 630.702820,203.137421 626.466675,184.544785 
	C625.218079,179.064697 623.586487,173.499115 621.042847,168.529327 
	C617.633972,161.868835 617.288452,160.848923 622.817871,155.869186 
	C625.756409,153.222733 628.229370,150.252548 630.816589,146.643448 
	C624.710083,146.205780 619.628479,147.974854 614.657166,149.655487 
	C609.682373,151.337296 606.917542,149.897964 604.696106,145.313644 
	C602.140076,140.038666 600.298584,134.323502 596.570129,129.726364 
	C595.162415,130.249527 594.788635,131.216629 594.489014,132.149200 
	C591.116028,142.647400 586.082581,152.378326 580.651123,161.909744 
	C573.005249,175.327194 562.496826,186.027710 549.125977,193.718933 
	C535.283691,201.681381 519.693604,203.952271 504.263489,206.219101 
	C487.762421,208.643265 471.116821,208.211807 454.470367,207.391739 
	C436.027618,206.483154 417.692230,204.996323 399.637634,200.896698 
	C381.931519,196.876221 364.003387,194.724396 345.826508,195.019440 
	C333.984985,195.211655 322.287933,196.694641 310.692841,199.129227 
	C296.119019,202.189285 282.537903,208.663147 267.294800,209.857513 
	C254.585907,210.853302 241.931839,212.891235 229.121094,213.287979 
	C209.400604,213.898697 189.691345,213.214401 170.661423,207.948608 
	C140.519440,199.607971 115.581528,182.610443 94.829247,159.333847 
	C93.230057,157.540146 92.005974,155.205215 88.974258,154.554916 
	C88.124504,156.471786 88.022934,158.392395 88.090225,160.396042 
	C88.229950,164.556000 88.377289,168.721252 88.314674,172.881210 
	C88.207397,180.008820 85.642990,182.484604 78.689415,182.463455 
	C75.913467,182.455002 73.137466,182.462067 69.676682,182.462067 
	C73.555527,188.526306 77.188835,193.991943 81.900955,198.681549 
	C84.367531,201.136353 87.301140,203.390823 87.241829,207.321335 
	C87.153908,213.147690 88.205017,218.881714 88.231941,224.728561 
	C88.273964,233.851761 88.739220,243.045914 90.008743,252.071655 
	C91.511055,262.752411 94.248154,273.231293 97.065788,283.676117 
	C101.758041,301.070099 107.366264,318.076141 116.150421,333.892090 
	C117.076363,335.559265 117.597519,337.739990 120.624008,337.946320 
	C121.704910,336.172638 123.103981,334.314880 124.051552,332.249908 
	C129.623825,320.106720 137.564026,309.460693 145.067261,298.525024 
	C152.728027,287.359741 162.013550,277.672302 172.007248,268.651581 
	C179.043839,262.300079 186.330948,256.220367 193.640991,250.182434 
	C195.135849,248.947693 197.111206,246.706604 199.267303,248.941132 
	C201.328323,251.077118 200.510559,253.591644 198.926193,255.775162 
	C197.141998,258.234100 194.752838,260.056152 192.303284,261.799988 
	C190.947983,262.764801 189.488174,263.619507 188.272263,264.737854 
	C174.080841,277.790436 159.869232,290.831665 149.061829,307.022339 
	C140.029114,320.554260 131.262268,334.147095 125.659203,349.658722 
	C119.190025,367.568146 114.255615,386.045654 104.682182,402.839325 
	C95.558807,418.843536 83.671959,432.149719 69.582390,443.742554 
	C68.009285,445.036926 65.598991,445.614532 65.169060,448.059052 
	C66.217239,449.662933 67.877739,450.190063 69.334923,450.900452 
	C87.724899,459.865723 107.372139,460.450409 126.999603,458.072815 
	C151.698669,455.080841 175.499237,448.106781 198.360840,438.209991 
	C221.650024,428.128143 241.492645,413.366089 257.908386,393.958221 
	C263.844238,386.940430 267.509216,378.391724 273.568176,371.484619 
	C274.963837,369.893616 274.391724,368.110596 273.859619,366.286224 
	C272.043549,360.059937 270.755890,353.721680 270.942108,347.200897 
	C270.999176,345.203278 271.547943,342.929901 274.008698,342.647736 
	C276.793549,342.328522 277.706451,344.628265 278.137115,346.778564 
	C279.441467,353.291260 280.699677,359.799744 282.270813,366.267487 
	C285.224213,378.425446 288.950836,390.151093 295.377258,401.048340 
	C302.480560,413.093353 312.595459,422.555969 321.472809,433.076996 
	C324.453918,436.610077 327.712982,440.020752 331.316071,442.897278 
	C346.062622,454.670013 363.950989,459.690155 381.354187,465.735413 
	C384.150604,466.706787 385.644989,465.986115 386.690948,463.203247 
	C387.999664,459.721313 390.475525,456.999207 393.187317,454.458252 
	C399.480347,448.561554 405.958588,442.888733 412.016571,436.705353 
	C421.237579,427.293488 429.075073,416.761139 437.091797,406.451202 
	C445.113098,396.135254 451.187561,384.400848 455.606720,371.932739 
	C461.100769,356.431946 461.986328,340.899261 457.121521,325.035828 
	C454.472046,316.396179 450.734802,308.292450 446.611816,300.309784 
	C445.161194,297.501221 444.284515,294.135406 447.569092,292.348206 
	C450.846985,290.564606 452.278534,293.967163 453.432281,296.170258 
	C456.594025,302.207397 459.498352,308.381958 462.405640,314.548767 
	C464.204041,318.363434 466.408386,318.880341 469.780273,316.220367 
	C483.532623,305.371399 497.759064,295.302399 514.142883,288.608612 
	C518.021973,287.023773 520.804565,287.119263 523.257080,290.559143 
	C530.978943,301.389465 538.164856,312.568481 544.370972,324.331482 
	C548.559143,332.269714 547.663025,335.202179 540.283997,340.512848 
	C536.370544,343.329346 532.020508,345.661133 528.529907,348.921021 
	C516.805969,359.870087 503.247314,368.278320 490.216339,377.429626 
	C488.371399,378.725250 485.150116,379.569946 486.827332,382.959290 
	C488.717285,386.778656 494.362701,390.301392 496.688263,389.044373 
	C499.300659,387.632355 502.073486,386.103516 504.022308,383.944641 
	C516.521667,370.098022 532.077393,360.064392 546.908630,349.126434 
	C550.018005,346.833313 552.729980,347.357758 554.979614,350.640259 
	C559.485413,357.214752 564.083069,363.726532 568.666565,370.247467 
	C573.248962,376.766846 573.164795,380.411835 567.591553,386.100403 
	C560.497864,393.340973 553.161072,400.343323 545.445679,407.965057 
M355.446289,622.645813 
	C359.930267,622.425720 364.412659,622.164612 368.898499,621.992737 
	C388.130859,621.255676 407.364197,620.544067 426.597229,619.824646 
	C445.689209,619.110596 464.785645,617.750000 483.871948,617.879028 
	C500.846039,617.993774 515.055847,610.830627 529.455627,603.579346 
	C530.729309,602.938049 532.474121,602.260742 532.232300,600.412720 
	C531.627258,595.788818 534.605835,593.541260 537.760559,591.159668 
	C540.944397,588.756042 544.099304,586.239380 546.883423,583.396729 
	C552.580994,577.579407 556.218140,570.398315 560.253601,563.772095 
	C558.462036,561.971191 557.005798,562.079041 555.754150,562.004517 
	C546.316223,561.442017 537.478455,559.056213 529.099121,554.532288 
	C520.627380,549.958435 520.234741,547.312866 527.148376,540.695496 
	C539.408203,528.960999 547.663086,514.546143 552.882812,498.603912 
	C558.621338,481.076965 559.817017,462.859222 558.665649,444.495941 
	C558.437012,440.850189 558.197327,437.188416 557.630188,433.586426 
	C557.243042,431.127625 555.820007,429.022675 552.916321,429.473450 
	C549.737854,429.966919 551.152405,432.617310 551.270020,434.337006 
	C551.733887,441.122162 552.981812,447.871033 553.395508,454.616272 
	C554.460999,471.987457 551.266907,489.059174 547.502930,505.889740 
	C544.229126,520.528625 532.755554,528.761963 520.668457,535.790527 
	C514.226135,539.536682 512.939697,541.447876 515.678650,548.412292 
	C516.481934,550.454895 517.163574,552.450806 517.279175,554.650513 
	C517.420044,557.329956 517.085876,560.066345 514.068298,560.586304 
	C511.241577,561.073425 510.226410,558.498596 509.454590,556.242798 
	C508.377289,553.094177 507.316193,549.937683 506.356476,546.751892 
	C505.423157,543.653687 503.579742,542.694153 500.333954,543.186401 
	C491.124542,544.583191 481.913696,545.164307 472.526642,544.467346 
	C454.090118,543.098572 440.849731,534.407959 432.672882,517.960876 
	C428.865387,510.302368 428.293274,501.678131 425.882751,493.656311 
	C421.922272,480.476624 420.887726,467.055359 419.529388,453.564392 
	C419.225647,450.547913 420.464935,447.057861 417.763458,443.772125 
	C408.470337,453.440277 396.849274,460.359833 391.017242,472.670898 
	C388.809021,477.332428 385.744049,477.929077 381.298157,476.183960 
	C372.350128,472.671539 363.300018,469.420013 354.316742,465.996063 
	C350.214539,464.432587 346.170868,462.715393 342.277039,461.139282 
	C341.066284,462.662201 341.224365,463.893829 341.480286,464.982544 
	C345.553528,482.310791 344.898041,499.682709 341.044678,516.848145 
	C337.833954,531.150635 331.484619,543.741394 317.883698,551.344238 
	C299.655090,561.533875 279.965332,565.431458 259.381561,564.130249 
	C235.612457,562.627625 218.358765,551.352295 209.288910,528.589600 
	C207.619019,524.398682 206.198135,520.103943 205.099304,515.845154 
	C202.914734,507.378479 199.939407,499.024048 199.769928,490.100067 
	C199.610107,481.683960 199.271240,473.271271 199.845871,465.042542 
	C197.310257,463.776886 193.975052,465.443176 193.146011,461.906219 
	C192.735626,460.155334 192.972672,458.216949 194.459915,457.371246 
	C198.082962,455.311066 200.543884,451.812500 204.419067,450.044189 
	C227.000168,439.740143 250.766998,435.168182 275.480927,434.692200 
	C286.212830,434.485504 296.934326,433.736633 309.478516,433.148834 
	C295.025848,417.430481 283.073883,401.660858 277.190796,380.757324 
	C272.281250,388.229156 268.243744,394.373901 264.227875,400.485687 
	C266.335175,402.162567 267.958496,401.293365 269.557373,401.096466 
	C272.384491,400.748260 275.257294,400.513275 277.934021,401.630524 
	C280.591309,402.739685 283.379089,404.143280 282.396820,407.799347 
	C281.467468,411.258453 278.702759,410.575409 275.910370,410.587219 
	C265.224365,410.632446 254.345749,410.861023 245.743881,418.434357 
	C230.964981,431.446136 214.303772,441.384888 196.185593,448.733887 
	C190.743820,450.941162 189.315475,454.248108 189.294464,459.163422 
	C189.208038,479.386139 187.931595,499.635406 191.298248,519.765564 
	C192.690979,528.093140 195.518890,535.926697 199.358459,543.257080 
	C203.947388,552.018005 211.815353,557.309265 221.102005,560.540039 
	C227.563126,562.787903 228.660828,565.799988 225.670624,571.961792 
	C224.469788,574.436279 222.767258,576.496826 220.714996,578.157959 
	C216.899673,581.246094 217.872879,583.347168 221.083237,586.452637 
	C230.102661,595.177429 241.116837,599.216919 253.080109,601.460999 
	C261.460815,603.033142 262.135193,604.148804 259.791779,612.535522 
	C273.190857,617.921448 286.816284,622.715210 300.814819,626.410950 
	C302.227661,626.783997 303.824341,626.835938 305.276733,626.627014 
	C321.595581,624.279358 338.085114,624.092712 355.446289,622.645813 
M124.115532,604.620911 
	C126.522606,612.386475 129.120392,620.053650 128.587906,628.447998 
	C128.321899,632.641541 131.238556,631.408875 133.281662,630.043213 
	C138.468307,626.576172 142.538330,622.024109 145.905014,616.761780 
	C148.551300,612.625488 154.042786,611.300415 157.002258,614.348816 
	C165.191498,622.783936 175.913055,624.609375 186.668945,625.536072 
	C202.259369,626.879395 217.563431,624.792480 232.105728,618.657532 
	C237.039322,616.576111 242.126785,614.580688 246.094711,609.863708 
	C232.430344,606.661194 221.372589,599.704590 211.850830,590.434570 
	C205.581818,584.331238 202.525497,579.635864 211.963440,574.450684 
	C212.390289,574.216187 212.719955,573.802124 213.088699,573.464966 
	C215.682724,571.092957 215.915756,569.190552 212.280304,567.510559 
	C201.823654,562.678345 195.005661,554.250366 189.963028,544.227966 
	C185.883072,536.118835 184.426392,527.302124 182.983337,518.417297 
	C180.326767,502.060852 180.132782,485.684937 181.210068,469.212830 
	C181.516052,464.534302 180.562225,459.841522 181.352295,454.384125 
	C177.231689,455.541382 174.069504,456.382721 170.935150,457.317291 
	C150.170395,463.508850 129.192398,468.450867 107.328232,468.194641 
	C96.503586,468.067780 95.893463,467.983612 94.776802,478.736389 
	C92.602188,499.676422 87.523788,520.557678 94.088676,541.757446 
	C97.587090,553.054565 101.182358,564.111450 107.304779,574.349915 
	C113.093369,584.030029 119.847145,593.202637 124.115532,604.620911 
M634.612732,562.131409 
	C635.289001,560.992126 636.121643,559.916687 636.616760,558.703491 
	C640.718201,548.653931 640.827148,548.864319 651.284180,550.896057 
	C658.508850,552.299805 665.950378,552.902649 672.948120,550.171265 
	C673.051636,547.792542 671.982849,546.648865 671.279358,545.344788 
	C667.084351,537.568970 663.178528,529.809082 662.379028,520.671265 
	C661.368164,509.117920 661.236938,497.611389 661.366699,486.024567 
	C661.589478,466.141846 658.890808,446.654968 650.894287,428.165833 
	C649.601685,425.176941 648.199585,423.973358 644.864441,424.973572 
	C639.927979,426.454010 634.867676,427.519714 629.864441,428.779572 
	C610.283875,433.710114 590.524109,435.156464 570.509583,431.907349 
	C567.124084,431.357727 565.570801,432.569824 565.927795,436.315369 
	C567.017090,447.743530 567.526978,459.145508 566.600342,470.678131 
	C564.443481,497.522888 555.087097,521.317200 538.105225,542.172424 
	C536.990295,543.541687 535.529724,544.799255 535.487549,546.738647 
	C536.507202,548.445374 538.269348,548.687195 539.803406,549.179688 
	C551.294128,552.869202 562.990540,553.152161 574.790283,551.036499 
	C577.501343,550.550476 580.071838,550.596741 580.865662,553.689331 
	C581.580322,556.473572 580.028625,558.471558 577.364441,559.505859 
	C576.278442,559.927490 575.191406,560.544189 574.068970,560.636780 
	C570.735840,560.911438 569.409119,563.032043 568.177368,565.825134 
	C564.135620,574.990173 559.023254,583.490845 551.834717,590.621338 
	C549.862305,592.577881 548.148376,594.794983 546.404419,596.791199 
	C547.423462,599.050720 549.121704,599.371460 551.020508,599.674988 
	C560.851318,601.246216 570.644958,600.857727 580.248169,598.514404 
	C602.483582,593.088684 622.227173,583.719971 634.612732,562.131409 
M209.009277,464.607697 
	C207.978470,467.612305 207.659454,470.649292 207.602921,473.871979 
	C207.331070,489.364716 210.528625,504.168304 214.993683,518.918335 
	C220.745209,537.918091 232.967697,550.117676 252.229828,553.601562 
	C273.752777,557.494263 294.562073,553.476807 314.018799,543.378784 
	C318.624298,540.988525 322.452393,537.363708 325.285187,532.970337 
	C335.271667,517.482544 335.517883,500.065430 335.139954,482.510437 
	C334.978088,474.992126 333.205353,467.691223 332.559692,460.256226 
	C331.956055,453.304688 323.102661,444.918396 316.162445,445.392456 
	C298.265594,446.615051 280.653198,449.926636 262.954620,452.644653 
	C256.273468,453.670685 250.009995,456.280853 243.040771,456.442932 
	C235.807037,456.611206 228.493561,458.006012 221.447372,459.784943 
	C217.403351,460.805908 212.646896,460.422424 209.009277,464.607697 
M451.359009,433.074677 
	C445.080597,433.738525 438.798798,434.372528 432.525116,435.078308 
	C429.167694,435.456055 427.397400,437.544220 427.464752,440.802307 
	C427.680634,451.245117 428.392822,461.690918 430.036163,471.983795 
	C431.735260,482.625946 434.178650,493.160828 436.593811,503.674316 
	C440.363190,520.083313 452.078339,531.020691 468.162170,533.782898 
	C486.524506,536.936462 504.100098,534.318909 520.371765,525.519653 
	C529.016357,520.844849 536.325562,514.088440 539.321716,504.053162 
	C541.364258,497.211945 542.629578,490.186951 543.452637,483.101929 
	C545.317139,467.053589 545.830688,451.021210 542.725342,435.032379 
	C541.879517,430.677612 540.468384,428.039398 535.047668,428.083679 
	C522.888794,428.183105 510.854736,429.721893 498.758331,430.313110 
	C483.255707,431.070770 467.757050,431.786621 451.359009,433.074677 
M476.029816,401.581970 
	C479.458771,413.619324 488.088684,415.482971 498.825684,413.249695 
	C499.307617,413.149445 499.841858,413.282654 500.315491,413.163330 
	C503.372955,412.392853 506.766266,414.434418 510.579834,411.747375 
	C502.880371,407.636169 495.831696,403.515015 489.977844,398.024139 
	C485.496002,393.820160 480.528809,393.338440 475.315002,394.030609 
	C470.358795,394.688568 465.401031,394.945923 460.448242,395.427948 
	C457.502777,395.714630 454.212219,396.166229 452.435211,398.855560 
	C447.612854,406.153748 442.585388,413.302399 437.098541,420.212982 
	C438.610962,421.133118 439.698761,420.525665 440.792145,420.299194 
	C448.099792,418.785553 455.365417,417.017944 462.723022,415.809937 
	C471.404327,414.384552 472.207153,413.227142 468.594116,405.352386 
	C467.211487,402.338867 466.092773,398.761719 469.423004,396.862946 
	C472.986206,394.831268 473.737549,399.220245 476.029816,401.581970 
M320.247711,130.966400 
	C320.903351,130.860611 321.558746,130.753265 322.214813,130.650146 
	C322.378998,130.624344 322.685028,130.577225 322.690430,130.598862 
	C322.852234,131.245071 323.472931,130.190018 322.810883,130.204300 
	C314.364288,130.688538 305.899261,130.965027 297.550323,132.557114 
	C295.079254,133.028351 292.752777,133.098282 292.100281,129.936066 
	C291.503052,127.041611 295.137512,120.837044 297.992432,119.459793 
	C312.665161,112.381516 328.443024,110.468819 344.414764,109.693459 
	C353.651886,109.245033 362.654907,110.566643 371.070251,114.790054 
	C373.066071,115.791695 374.762787,117.650696 377.991211,117.699532 
	C365.995605,109.909149 361.258850,108.478981 348.091248,108.373283 
	C338.151398,108.293495 328.361023,109.169182 318.566498,111.182190 
	C310.927673,112.752136 303.556488,114.867798 296.505066,118.035881 
	C293.065216,119.581352 290.394653,127.685654 291.513306,131.280914 
	C292.143250,133.305298 293.717316,133.915894 295.398254,133.598145 
	C303.397522,132.086060 311.695160,133.729095 320.247711,130.966400 
M470.892853,378.552795 
	C468.932526,376.927551 468.211487,372.856934 465.403015,373.561218 
	C462.226776,374.357697 461.845398,378.373535 460.781647,381.232208 
	C459.696838,384.147461 461.042023,385.698120 464.113831,385.564697 
	C465.748291,385.493683 467.366791,385.112305 469.001007,384.967316 
	C473.745758,384.546326 473.663971,382.274445 470.892853,378.552795 
M448.192139,195.855286 
	C427.959991,195.645844 408.178345,191.696838 388.312225,188.383362 
	C392.076935,190.503998 396.312927,190.299652 400.310547,191.215073 
	C415.842896,194.772018 431.527313,197.261169 447.524445,197.171844 
	C448.011414,197.169128 449.534668,197.776169 448.192139,195.855286 
M671.558289,509.415741 
	C671.558289,497.184265 671.558289,484.952789 671.558289,472.721313 
	C670.953247,472.740814 670.348206,472.760315 669.743164,472.779816 
	C670.707275,488.563660 668.487061,504.452972 671.548340,520.150085 
	C671.548340,516.892944 671.548340,513.635803 671.558289,509.415741 
M182.833588,200.571198 
	C191.707809,202.520828 191.707809,202.520828 194.985245,200.898483 
	C179.050919,199.384064 164.500870,194.734055 150.202179,189.145569 
	C160.084702,195.098267 170.992493,197.915970 182.833588,200.571198 
M356.674286,153.192093 
	C356.467682,152.267319 356.791779,151.160843 355.328552,150.222260 
	C357.214172,157.249985 356.250580,163.930359 355.313080,170.605927 
	C354.068268,179.469482 348.235962,184.356552 339.164825,184.478134 
	C336.712769,184.511002 333.912781,183.476639 331.269257,186.122040 
	C335.931213,187.246933 339.908508,185.289185 343.951508,185.642059 
	C347.073608,185.914581 349.333435,184.427948 350.995514,181.807770 
	C356.448029,173.212158 358.676392,163.970581 356.674286,153.192093 
M76.284538,719.543396 
	C73.640503,724.430542 70.743317,729.168457 67.816360,733.860596 
	C78.668716,720.278564 84.276215,704.137390 90.056946,688.073792 
	C85.640167,698.383179 81.223396,708.692627 76.284538,719.543396 
M70.840607,429.365387 
	C66.775978,433.531982 62.312374,437.060730 56.916531,439.489594 
	C51.812069,441.787292 49.859440,445.924377 51.644905,450.566833 
	C51.844868,444.149902 55.626961,441.504700 60.342243,439.021576 
	C67.317894,435.348114 73.087471,430.014252 78.016068,423.899353 
	C77.543129,423.401398 77.070190,422.903412 76.597244,422.405457 
	C74.845215,424.558899 73.093178,426.712341 70.840607,429.365387 
M55.631321,171.430969 
	C53.547489,179.792282 59.035038,184.948914 63.655865,190.455551 
	C61.840721,186.837540 59.704094,183.381241 57.722836,179.838058 
	C56.210789,177.133987 56.389694,174.406677 58.256393,171.887146 
	C59.974583,169.568039 62.250595,170.236053 64.593796,170.620789 
	C66.675369,170.962570 68.799805,172.108185 71.774887,171.052017 
	C61.644585,168.300659 59.890976,167.770737 55.631321,171.430969 
M92.226761,406.777008 
	C93.819557,404.240753 95.456772,401.731049 96.992294,399.160553 
	C98.442650,396.732666 99.977844,394.326111 101.121735,391.752838 
	C102.229340,389.261230 103.883171,386.862366 103.913322,383.168610 
	C98.419075,395.501343 91.856781,406.229980 84.212143,416.387726 
	C86.085434,412.748657 90.303337,411.202271 92.226761,406.777008 
M630.258179,162.094986 
	C627.212219,163.205307 629.079102,165.300903 629.671143,166.632141 
	C631.293274,170.279510 632.184204,174.130600 633.447510,177.873322 
	C634.533508,181.090729 634.754456,184.552139 636.090393,187.713348 
	C635.909790,183.585983 635.965820,179.529648 634.528320,175.609863 
	C632.960327,171.334259 631.808228,166.906097 630.258179,162.094986 
M669.122070,461.757935 
	C669.489807,451.988831 666.863708,442.933777 662.739746,434.233398 
	C665.989136,443.107239 666.786743,452.526672 669.122070,461.757935 
M391.626770,146.206146 
	C392.930878,136.025421 387.428711,126.147789 382.589600,122.244827 
	C389.633545,130.760910 391.647064,140.729874 391.433075,151.429810 
	C391.497772,149.961716 391.562469,148.493622 391.626770,146.206146 
M657.424500,575.073242 
	C658.196777,577.654175 659.098572,580.160645 661.523499,582.673096 
	C659.877136,575.258911 655.412720,569.458130 655.545776,561.778320 
	C660.227539,561.778320 664.583496,561.778320 668.939392,561.778320 
	C668.931641,561.637817 668.923950,561.497314 668.916199,561.356812 
	C664.043457,561.356812 659.170776,561.356812 654.169922,561.356812 
	C654.339294,566.208069 656.543762,570.078918 657.424500,575.073242 
M367.895508,173.131592 
	C364.403381,176.038818 365.057922,172.367798 364.217865,170.362839 
	C364.331238,173.257019 362.588989,175.496094 363.701141,178.487122 
	C370.526337,172.528320 375.368195,165.672638 379.127869,158.001541 
	C375.071625,162.539032 372.584656,168.206726 367.895508,173.131592 
M643.290833,146.676315 
	C643.911743,140.172134 642.469788,137.935501 636.278259,136.672394 
	C639.864868,139.189453 642.681335,141.887421 641.808167,146.009018 
	C640.997498,149.835922 638.151001,152.742752 634.669678,156.540421 
	C639.623962,154.168396 641.235901,150.710068 643.290833,146.676315 
M206.724472,203.626724 
	C213.810532,203.322189 220.930267,204.291718 227.996445,203.134567 
	C218.518234,201.790848 209.040756,203.723297 199.561188,202.741608 
	C201.564575,204.110199 203.731812,203.427521 206.724472,203.626724 
M88.457504,289.611572 
	C90.926987,297.425934 93.396469,305.240295 95.865952,313.054657 
	C94.825317,306.677460 92.987633,300.545410 91.120857,294.422272 
	C90.782967,293.313965 90.523491,292.095062 89.858986,291.201477 
	C89.359947,290.530365 90.611855,288.569641 88.457504,289.611572 
M108.974800,369.996674 
	C112.644279,363.692993 115.395523,357.133392 115.045486,349.707947 
	C114.611603,356.865540 111.187073,363.136200 108.974800,369.996674 
M85.316422,483.859436 
	C85.587837,481.634460 86.997192,479.375946 85.083679,477.184692 
	C84.754120,482.207214 82.875290,487.070709 83.547256,492.625275 
	C85.075218,489.779083 85.518837,487.241608 85.316422,483.859436 
M336.000885,130.981705 
	C333.685974,130.651245 331.365570,130.115616 328.435516,130.908203 
	C332.707336,133.813202 336.910950,131.890060 340.816833,132.521042 
	C339.426514,132.072815 338.036224,131.624588 336.000885,130.981705 
M684.213196,657.478455 
	C681.207336,657.760437 678.046997,656.716064 675.209167,658.454163 
	C679.447876,658.162231 683.852417,659.515381 688.654907,657.157043 
	C686.892761,657.297668 685.901978,657.376770 684.213196,657.478455 
M253.113602,200.416519 
	C251.225739,200.651169 249.025970,199.716049 246.874695,202.137253 
	C250.958908,202.178741 254.307495,203.258499 258.134338,201.143860 
	C256.323517,200.847427 255.077545,200.643463 253.113602,200.416519 
M382.590057,142.445816 
	C382.340424,142.076630 382.090790,141.707428 381.841156,141.338211 
	C381.735504,141.445496 381.543182,141.547882 381.536835,141.660797 
	C381.331177,145.302490 381.738434,148.969635 380.933441,152.591675 
	C382.919006,149.621567 382.766998,146.321991 382.590057,142.445816 
M371.556488,185.534531 
	C370.853638,185.292053 370.083191,184.648834 369.443787,186.238876 
	C373.025696,186.834930 376.484833,187.410568 379.943939,187.986191 
	C377.634125,185.531830 374.601227,187.086044 371.556488,185.534531 
M657.613037,371.701569 
	C659.327209,373.581024 659.702759,376.431519 662.656677,378.367493 
	C661.054993,375.334747 659.949097,372.860046 658.492188,370.612946 
	C657.483215,369.056763 657.564209,370.532074 657.613037,371.701569 
M95.398430,672.282593 
	C93.792656,675.409790 94.032089,679.090820 92.303749,682.183533 
	C94.631973,679.404724 95.375092,676.098999 95.398430,672.282593 
z"/>
<path fill="#000000" opacity="1.000000" stroke="none" 
	d="
M1.000000,312.468658 
	C2.737198,320.729187 2.073718,329.489563 1.170642,338.625427 
	C1.000000,330.312439 1.000000,321.624878 1.000000,312.468658 
z"/>
<path fill="#000000" opacity="1.000000" stroke="none" 
	d="
M400.993469,553.888062 
	C404.105103,553.023987 407.258881,551.654907 408.590363,555.430908 
	C409.958252,559.310059 406.675507,560.794006 403.927673,561.844055 
	C392.176453,566.334229 379.930145,568.099609 367.386566,567.864380 
	C364.898987,567.817688 363.258484,566.470154 363.233398,563.857727 
	C363.207947,561.202820 364.588715,559.476685 367.270386,558.978149 
	C371.673462,558.159729 376.164764,558.359558 380.614868,557.842957 
	C387.402985,557.055054 393.983368,555.511780 400.993469,553.888062 
z"/>
<path fill="#000000" opacity="1.000000" stroke="none" 
	d="
M634.227051,520.840515 
	C640.797913,523.913391 642.626648,528.357788 639.835999,533.662292 
	C636.808716,539.416626 629.611816,542.023865 624.609070,539.113770 
	C621.276001,537.174927 620.504639,533.970764 620.966858,530.486633 
	C621.628235,525.501221 624.870605,522.543213 629.430603,521.025146 
	C630.786499,520.573730 632.378113,520.830261 634.227051,520.840515 
z"/>
</svg>