<svg xmlns="http://www.w3.org/2000/svg" fill-rule="evenodd" stroke-linejoin="round" stroke-miterlimit="2" clip-rule="evenodd" viewBox="0 0 267 267"><path fill="#d1ebfa" d="M121.229,88.328c-0.357,-0.693 -1.072,-1.129 -1.852,-1.129l-61.317,-0c-10.84,-0 -20.114,7.785 -21.992,18.461c-5.046,28.686 -15.359,87.32 -21.147,120.225c-1.143,6.499 0.647,13.171 4.89,18.225c4.242,5.055 10.503,7.973 17.102,7.973c46.192,0 146.649,0 192.841,0c6.598,0 12.859,-2.918 17.102,-7.973c4.243,-5.054 6.033,-11.726 4.89,-18.225c-5.788,-32.905 -16.101,-91.539 -21.147,-120.225c-1.878,-10.676 -11.152,-18.461 -21.992,-18.461c-0,-0 -25.892,-0 -25.892,-0c-0.78,-0 -1.495,0.436 -1.852,1.129c-5.292,10.275 -12.322,19.295 -18.915,24.858c-4.041,3.409 -7.829,5.548 -10.902,5.548c-3.073,0 -6.861,-2.139 -10.902,-5.548c-6.593,-5.563 -13.622,-14.583 -18.915,-24.858Z"/><path fill="#5bbc6b" d="M229.754,252.083l-0,0l0.309,-0.002c6.484,-0.089 12.617,-2.995 16.793,-7.971c4.243,-5.054 6.033,-11.726 4.89,-18.225l-18.467,-104.99l-59.671,59.67c-2.039,2.039 -3.184,4.803 -3.184,7.686c0,2.883 1.146,5.648 3.184,7.686l56.146,56.146Z"/><path fill="#4d8bf0" d="M42.53,93.595c-3.317,3.119 -5.625,7.305 -6.462,12.065c-5.046,28.686 -15.359,87.32 -21.147,120.225c-1.143,6.499 0.647,13.171 4.89,18.225c4.242,5.055 10.503,7.973 17.102,7.973l164.106,0l-158.489,-158.488Z"/><path fill="#d1ebfa" d="M106.411,228.786c0.968,-8.424 3.735,-32.485 4.804,-41.783c0.177,-1.539 -0.312,-3.079 -1.342,-4.235c-1.031,-1.156 -2.506,-1.817 -4.054,-1.817l-59.665,-0c-2.637,-0 -4.893,1.894 -5.349,4.491c-1.759,9.997 -7.677,43.646 -7.677,43.646c-0.197,1.118 0.111,2.267 0.841,3.137c0.73,0.87 1.808,1.372 2.944,1.372l64.102,0c2.76,0 5.081,-2.069 5.396,-4.811l-0,-0Z"/><path fill="#4c89ec" d="M134.501,107.69c-0.61,-0.672 -1.583,-0.872 -2.408,-0.495l-11.302,5.163c-4.023,1.838 -6.56,5.899 -6.447,10.32c0.114,4.421 2.855,8.347 6.966,9.976l18.342,7.27c7.319,2.901 15.469,2.901 22.788,0c5.378,-2.131 12.079,-4.787 18.342,-7.27c4.112,-1.629 6.853,-5.555 6.966,-9.976c0.113,-4.421 -2.424,-8.482 -6.446,-10.32l-11.302,-5.163c-0.825,-0.377 -1.799,-0.177 -2.408,0.495c-3.732,4.111 -7.507,7.335 -10.95,9.244c-2.042,1.133 -3.932,1.8 -5.596,1.8c-1.663,0 -3.553,-0.667 -5.596,-1.8c-3.443,-1.909 -7.218,-5.133 -10.949,-9.244Z"/><path fill="#d81a61" d="M151.046,14.583c-11.688,0 -22.258,3.295 -29.925,10.305c-7.668,7.01 -12.498,17.761 -12.498,32.852c-0,20.664 13.486,44.167 26.344,56.395c5.856,5.569 11.676,8.766 16.079,8.766c4.403,0 10.224,-3.197 16.079,-8.766c12.859,-12.228 26.345,-35.731 26.345,-56.395c-0,-15.091 -4.831,-25.842 -12.499,-32.852c-7.667,-7.01 -18.236,-10.305 -29.925,-10.305Z"/><path fill="#fce4ec" d="M151.046,25.995c-18.16,0 -30.688,12.525 -30.688,27.81c0,15.284 13.693,27.809 30.688,27.809c16.995,-0 30.688,-12.525 30.688,-27.809c0,-15.285 -10.949,-27.81 -30.688,-27.81Z"/><path fill="#e3f3fc" d="M251.746,225.885l-13.331,-75.79l-2.036,0.422c-18.73,2.581 -33.176,18.668 -33.176,38.102c-0,21.229 17.235,38.464 38.464,38.464c0.617,0 4.502,-0.361 10.125,-0.922l-0.046,-0.276Z"/><path fill="#f7c72e" d="M64.869,87.199l-6.809,-0c-6.008,-0 -11.534,2.391 -15.587,6.339l158.546,158.545l28.735,0l-0,0l-56.146,-56.146c-2.038,-2.038 -3.184,-4.803 -3.184,-7.686c0,-2.883 1.145,-5.647 3.184,-7.686l59.671,-59.67l-2.68,-15.235c-0.502,-2.851 -1.531,-5.497 -2.977,-7.844l-68.382,68.381c-2.038,2.039 -4.803,3.184 -7.686,3.184c-2.882,0 -5.647,-1.145 -7.686,-3.183l-78.999,-78.999Z"/><path fill="#212850" d="M65.479 87.809c-.39-.391-.92-.61-1.473-.61l-5.946 0c-5.182 0-10.006 1.779-13.834 4.802-.466.369-.753.92-.788 1.513-.035.594.186 1.175.607 1.595l156.364 156.364c.39.391.92.61 1.473.61l22.842 0c.843 0 1.603-.507 1.925-1.286.323-.778.144-1.674-.452-2.27 0 0-35.395-35.395-52.589-52.59-2.038-2.038-3.184-4.803-3.184-7.686 0-2.883 1.145-5.647 3.184-7.686 18.569-18.569 58.904-58.904 58.904-58.904.48-.48.696-1.165.579-1.834l-2.492-14.167c-.323-1.835-.864-3.584-1.595-5.225-.279-.626-.849-1.075-1.523-1.2-.675-.125-1.368.09-1.853.575 0 0-46.269 46.269-66.388 66.387-2.038 2.039-4.803 3.184-7.686 3.184-2.882 0-5.647-1.145-7.686-3.183 0 0-78.389-78.389-78.389-78.389zm-2.336 3.556l77.779 77.779c2.82 2.82 6.644 4.404 10.632 4.404 3.988 0 7.813-1.584 10.633-4.404 0 0 64.037-64.037 64.037-64.037.105.418.195.843.271 1.275 0 0 2.304 13.099 2.304 13.099 0 0-58.137 58.138-58.137 58.138-2.82 2.82-4.404 6.644-4.404 10.632 0 3.988 1.584 7.813 4.404 10.633 0 0 49.033 49.033 49.033 49.033 0 0-16.95 0-16.95 0 0 0-153.988-153.988-153.988-153.988 2.735-1.635 5.926-2.564 9.303-2.564l5.083 0zM106.411 228.786c.968-8.424 3.735-32.485 4.804-41.783.177-1.539-.312-3.079-1.342-4.235-1.031-1.156-2.506-1.817-4.054-1.817l-59.665 0c-2.637 0-4.893 1.894-5.349 4.491-1.759 9.997-7.677 43.646-7.677 43.646-.197 1.118.111 2.267.841 3.137.73.87 1.808 1.372 2.944 1.372l64.102 0c2.76 0 5.081-2.069 5.396-4.811l0 0zm-69.113.645l7.61-43.268c.107-.604.632-1.045 1.246-1.045 0 0 59.665 0 59.665 0 .36 0 .704.154.944.423.24.269.353.628.312.986l-4.803 41.783c-.074.639-.614 1.12-1.257 1.121l-63.717 0z"/><path fill="#212850" d="M121.229,88.328c-0.357,-0.693 -1.072,-1.129 -1.852,-1.129l-61.317,-0c-10.84,-0 -20.114,7.785 -21.992,18.461c-5.046,28.686 -15.359,87.32 -21.147,120.225c-1.143,6.499 0.647,13.171 4.89,18.225c4.242,5.055 10.503,7.973 17.102,7.973c46.192,0 146.649,0 192.841,0c6.598,0 12.859,-2.918 17.102,-7.973c4.243,-5.054 6.033,-11.726 4.89,-18.225c-5.788,-32.905 -16.101,-91.539 -21.147,-120.225c-1.878,-10.676 -11.152,-18.461 -21.992,-18.461c-0,-0 -25.892,-0 -25.892,-0c-0.78,-0 -1.495,0.436 -1.852,1.129c-5.292,10.275 -12.322,19.295 -18.915,24.858c-4.041,3.409 -7.829,5.548 -10.902,5.548c-3.073,0 -6.861,-2.139 -10.902,-5.548c-6.593,-5.563 -13.622,-14.583 -18.915,-24.858Zm-3.113,3.037c5.497,10.342 12.647,19.357 19.342,25.005c4.98,4.203 9.801,6.531 13.588,6.531c3.788,0 8.609,-2.328 13.589,-6.531c6.696,-5.649 13.846,-14.665 19.342,-25.006c-0.001,0.001 24.63,0.001 24.63,0.001c8.817,0 16.361,6.333 17.888,15.017c5.046,28.686 15.359,87.319 21.147,120.225c0.93,5.287 -0.526,10.713 -3.977,14.825c-3.451,4.111 -8.544,6.485 -13.911,6.485c-0.001,-0 -192.841,-0 -192.841,-0c-5.367,-0 -10.46,-2.374 -13.911,-6.485c-3.451,-4.112 -4.907,-9.538 -3.977,-14.825c5.788,-32.906 16.101,-91.539 21.146,-120.225c1.528,-8.684 9.071,-15.017 17.889,-15.017l60.056,0Z"/><path fill="#212850" d="M134.501,107.69c-0.61,-0.672 -1.583,-0.872 -2.408,-0.495l-11.302,5.163c-4.023,1.838 -6.56,5.899 -6.447,10.32c0.114,4.421 2.855,8.347 6.966,9.976l18.342,7.27c7.319,2.901 15.469,2.901 22.788,0c5.378,-2.131 12.079,-4.787 18.342,-7.27c4.112,-1.629 6.853,-5.555 6.966,-9.976c0.113,-4.421 -2.424,-8.482 -6.446,-10.32l-11.302,-5.163c-0.825,-0.377 -1.799,-0.177 -2.408,0.495c-3.732,4.111 -7.507,7.335 -10.95,9.244c-2.042,1.133 -3.932,1.8 -5.596,1.8c-1.663,0 -3.553,-0.667 -5.596,-1.8c-3.443,-1.909 -7.218,-5.133 -10.949,-9.244Zm-2.047,3.92c3.747,3.962 7.525,7.055 10.976,8.968c2.766,1.534 5.363,2.323 7.616,2.323c2.254,0 4.85,-0.789 7.617,-2.323c3.45,-1.913 7.228,-5.006 10.976,-8.968c-0.001,0.001 9.932,4.538 9.932,4.538c2.503,1.144 4.082,3.672 4.012,6.423c-0.071,2.752 -1.777,5.196 -4.336,6.21c0,-0 -18.342,7.27 -18.342,7.27c-6.333,2.509 -13.385,2.509 -19.717,-0c-0,-0 -18.343,-7.27 -18.343,-7.27c-2.559,-1.014 -4.265,-3.458 -4.335,-6.21c-0.071,-2.751 1.508,-5.279 4.012,-6.423l9.932,-4.538Z"/><path fill="#212850" d="M151.046 14.583c-11.688 0-22.258 3.295-29.925 10.305-7.668 7.01-12.498 17.761-12.498 32.852 0 20.664 13.486 44.167 26.344 56.395 5.856 5.569 11.676 8.766 16.079 8.766 4.403 0 10.224-3.197 16.079-8.766 12.859-12.228 26.345-35.731 26.345-56.395 0-15.091-4.831-25.842-12.499-32.852-7.667-7.01-18.236-10.305-29.925-10.305zm0 4.167c10.576 0 20.177 2.871 27.114 9.213 6.936 6.341 11.143 16.127 11.143 29.777 0 19.574-12.869 41.793-25.049 53.376-4.875 4.636-9.542 7.618-13.208 7.618-3.666 0-8.332-2.982-13.208-7.618-12.179-11.583-25.049-33.802-25.049-53.376 0-13.65 4.208-23.436 11.144-29.777 6.937-6.342 16.538-9.213 27.113-9.213zm0 7.245c-18.16 0-30.688 12.525-30.688 27.81 0 15.284 13.693 27.809 30.688 27.809 16.995 0 30.688-12.525 30.688-27.809 0-15.285-10.949-27.81-30.688-27.81zm0 4.167c16.935 0 26.522 10.53 26.522 23.643 0 13.112-11.941 23.642-26.522 23.642-14.58 0-26.521-10.53-26.521-23.642 0-13.113 10.942-23.643 26.521-23.643zM238.787 152.21c-.194-1.102-1.224-1.854-2.332-1.703-18.767 2.548-33.252 18.652-33.252 38.112 0 21.229 17.235 38.464 38.464 38.464 2.778 0 5.488-.295 8.102-.857 1.096-.235 1.809-1.294 1.615-2.398l-12.597-71.618zm-3.747 2.753l11.882 67.553c-1.714.264-3.469.401-5.255.401-18.929 0-34.298-15.368-34.298-34.298 0-16.662 11.908-30.566 27.671-33.656l0 0z"/></svg>