<svg xmlns="http://www.w3.org/2000/svg" viewBox="0 0 24 24"><path fill="#303C42" d="M12 0C5.383 0 0 5.383 0 12s5.383 12 12 12 12-5.383 12-12S18.617 0 12 0z"/><path fill="#FFF" d="M12 23C5.935 23 1 18.065 1 12S5.935 1 12 1s11 4.935 11 11-4.935 11-11 11z"/><path fill="#303C42" d="M7 9c-.827 0-1.5.673-1.5 1.5a.5.5 0 101 0A.5.5 0 017 10a.5.5 0 100-1zM5 5.5c-.827 0-1.5.673-1.5 1.5a.5.5 0 101 0 .5.5 0 01.5-.5.5.5 0 100-1zM4.5 8.5C3.673 8.5 3 9.173 3 10a.5.5 0 101 0 .5.5 0 01.5-.5.5.5 0 100-1zM3.5 12.5a.5.5 0 100-1c-.827 0-1.5.673-1.5 1.5a.5.5 0 101 0 .5.5 0 01.5-.5zM4.5 14c-.827 0-1.5.673-1.5 1.5a.5.5 0 101 0 .5.5 0 01.5-.5.5.5 0 100-1zM8.5 5.5C7.673 5.5 7 6.173 7 7a.5.5 0 101 0 .5.5 0 01.5-.5.5.5 0 100-1zM6.5 5a.5.5 0 00.5-.5.5.5 0 01.5-.5.5.5 0 100-1C6.673 3 6 3.673 6 4.5a.5.5 0 00.5.5zM12 5c-.827 0-1.5.673-1.5 1.5a.5.5 0 101 0A.5.5 0 0112 6a.5.5 0 100-1zM11 2.5a.5.5 0 00-.5-.5C9.673 2 9 2.673 9 3.5a.5.5 0 101 0 .5.5 0 01.5-.5.5.5 0 00.5-.5zM13.5 2.5c-.827 0-1.5.673-1.5 1.5a.5.5 0 101 0 .5.5 0 01.5-.5.5.5 0 100-1zM16.5 2.5c-.827 0-1.5.673-1.5 1.5a.5.5 0 101 0 .5.5 0 01.5-.5.5.5 0 100-1zM18.5 4c-.827 0-1.5.673-1.5 1.5a.5.5 0 101 0 .5.5 0 01.5-.5.5.5 0 100-1z"/><path d="M20.437 4.954C20.799 6.072 21 7.262 21 8.5 21 14.851 15.851 20 9.5 20c-2.592 0-4.976-.868-6.9-2.315C4.532 20.865 8.017 23 12 23c6.065 0 11-4.935 11-11 0-2.68-.965-5.136-2.563-7.046z" opacity=".1"/><linearGradient id="a" x1="1.125" x2="22.875" y1="6.929" y2="17.071" gradientUnits="userSpaceOnUse"><stop offset="0" stop-color="#FFF" stop-opacity=".2"/><stop offset="1" stop-color="#FFF" stop-opacity="0"/></linearGradient><path fill="url(#a)" d="M12 0C5.383 0 0 5.383 0 12s5.383 12 12 12 12-5.383 12-12S18.617 0 12 0z"/></svg>