<svg width="229" height="243" viewBox="0 0 229 243" fill="none" xmlns="http://www.w3.org/2000/svg">
<rect width="229" height="243" rx="32" fill="white"/>
<mask id="path-2-outside-1_605_3" maskUnits="userSpaceOnUse" x="38" y="40" width="160" height="156" fill="black">
<rect fill="white" x="38" y="40" width="160" height="156"/>
<path d="M79.46 105.724V166.076H60.6V123.928H42.232V105.724H79.46ZM79.46 158.368C85.692 169.192 97.336 173.948 114.228 174.604C133.908 175.588 172.776 175.096 195.572 173.292C193.44 177.72 190.324 186.74 189.504 192.48C169.004 193.464 134.072 193.792 114.064 192.808C94.384 191.988 81.1 187.232 71.26 174.604C64.7 181 57.812 187.232 49.612 194.284L40.264 174.768C47.152 170.34 55.188 164.436 62.404 158.368H79.46ZM42.724 57.016L57.812 46.028C67.16 53.244 78.64 64.232 83.724 71.94L67.488 84.404C63.06 76.368 52.072 65.052 42.724 57.016ZM104.388 88.012L121.28 84.404C124.232 89.16 127.02 95.556 128.004 99.82L109.964 103.92C109.472 99.656 107.012 92.932 104.388 88.012ZM96.188 51.44H182.288V65.052H96.188V51.44ZM94.384 122.124H184.42V135.736H94.384V122.124ZM87.66 100.968H190.488V114.908H87.66V100.968ZM85.2 73.252H192.456V87.52H85.2V73.252ZM87.496 143.608H190.816V157.876H87.496V143.608ZM128.66 41.764H148.176V82.272H128.66V41.764ZM128.66 107.856H148.176V168.7H128.66V107.856ZM154.244 84.076L173.596 88.504C169.988 94.572 166.708 100.148 164.248 104.084L148.34 99.984C150.472 95.228 153.096 88.504 154.244 84.076Z"/>
</mask>
<path d="M79.46 105.724V166.076H60.6V123.928H42.232V105.724H79.46ZM79.46 158.368C85.692 169.192 97.336 173.948 114.228 174.604C133.908 175.588 172.776 175.096 195.572 173.292C193.44 177.72 190.324 186.74 189.504 192.48C169.004 193.464 134.072 193.792 114.064 192.808C94.384 191.988 81.1 187.232 71.26 174.604C64.7 181 57.812 187.232 49.612 194.284L40.264 174.768C47.152 170.34 55.188 164.436 62.404 158.368H79.46ZM42.724 57.016L57.812 46.028C67.16 53.244 78.64 64.232 83.724 71.94L67.488 84.404C63.06 76.368 52.072 65.052 42.724 57.016ZM104.388 88.012L121.28 84.404C124.232 89.16 127.02 95.556 128.004 99.82L109.964 103.92C109.472 99.656 107.012 92.932 104.388 88.012ZM96.188 51.44H182.288V65.052H96.188V51.44ZM94.384 122.124H184.42V135.736H94.384V122.124ZM87.66 100.968H190.488V114.908H87.66V100.968ZM85.2 73.252H192.456V87.52H85.2V73.252ZM87.496 143.608H190.816V157.876H87.496V143.608ZM128.66 41.764H148.176V82.272H128.66V41.764ZM128.66 107.856H148.176V168.7H128.66V107.856ZM154.244 84.076L173.596 88.504C169.988 94.572 166.708 100.148 164.248 104.084L148.34 99.984C150.472 95.228 153.096 88.504 154.244 84.076Z" fill="black"/>
<path d="M79.46 105.724H80.46V104.724H79.46V105.724ZM79.46 166.076V167.076H80.46V166.076H79.46ZM60.6 166.076H59.6V167.076H60.6V166.076ZM60.6 123.928H61.6V122.928H60.6V123.928ZM42.232 123.928H41.232V124.928H42.232V123.928ZM42.232 105.724V104.724H41.232V105.724H42.232ZM79.46 158.368L80.3266 157.869L80.0382 157.368H79.46V158.368ZM114.228 174.604L114.278 173.605L114.267 173.605L114.228 174.604ZM195.572 173.292L196.473 173.726L197.228 172.158L195.493 172.295L195.572 173.292ZM189.504 192.48L189.552 193.479L190.377 193.439L190.494 192.621L189.504 192.48ZM114.064 192.808L114.113 191.809L114.106 191.809L114.064 192.808ZM71.26 174.604L72.0488 173.989L71.362 173.108L70.5619 173.888L71.26 174.604ZM49.612 194.284L48.7101 194.716L49.2741 195.893L50.264 195.042L49.612 194.284ZM40.264 174.768L39.7232 173.927L38.9809 174.404L39.3621 175.2L40.264 174.768ZM62.404 158.368V157.368H62.0394L61.7604 157.603L62.404 158.368ZM42.724 57.016L42.1353 56.2076L41.1145 56.9511L42.0721 57.7743L42.724 57.016ZM57.812 46.028L58.4231 45.2364L57.8295 44.7782L57.2233 45.2196L57.812 46.028ZM83.724 71.94L84.3329 72.7332L85.0713 72.1664L84.5588 71.3894L83.724 71.94ZM67.488 84.404L66.6122 84.8866L67.1738 85.9059L68.0969 85.1972L67.488 84.404ZM104.388 88.012L104.179 87.0341L102.881 87.3113L103.506 88.4826L104.388 88.012ZM121.28 84.404L122.13 83.8766L121.759 83.2792L121.071 83.4261L121.28 84.404ZM128.004 99.82L128.226 100.795L129.204 100.573L128.978 99.5951L128.004 99.82ZM109.964 103.92L108.971 104.035L109.098 105.142L110.186 104.895L109.964 103.92ZM96.188 51.44V50.44H95.188V51.44H96.188ZM182.288 51.44H183.288V50.44H182.288V51.44ZM182.288 65.052V66.052H183.288V65.052H182.288ZM96.188 65.052H95.188V66.052H96.188V65.052ZM94.384 122.124V121.124H93.384V122.124H94.384ZM184.42 122.124H185.42V121.124H184.42V122.124ZM184.42 135.736V136.736H185.42V135.736H184.42ZM94.384 135.736H93.384V136.736H94.384V135.736ZM87.66 100.968V99.968H86.66V100.968H87.66ZM190.488 100.968H191.488V99.968H190.488V100.968ZM190.488 114.908V115.908H191.488V114.908H190.488ZM87.66 114.908H86.66V115.908H87.66V114.908ZM85.2 73.252V72.252H84.2V73.252H85.2ZM192.456 73.252H193.456V72.252H192.456V73.252ZM192.456 87.52V88.52H193.456V87.52H192.456ZM85.2 87.52H84.2V88.52H85.2V87.52ZM87.496 143.608V142.608H86.496V143.608H87.496ZM190.816 143.608H191.816V142.608H190.816V143.608ZM190.816 157.876V158.876H191.816V157.876H190.816ZM87.496 157.876H86.496V158.876H87.496V157.876ZM128.66 41.764V40.764H127.66V41.764H128.66ZM148.176 41.764H149.176V40.764H148.176V41.764ZM148.176 82.272V83.272H149.176V82.272H148.176ZM128.66 82.272H127.66V83.272H128.66V82.272ZM128.66 107.856V106.856H127.66V107.856H128.66ZM148.176 107.856H149.176V106.856H148.176V107.856ZM148.176 168.7V169.7H149.176V168.7H148.176ZM128.66 168.7H127.66V169.7H128.66V168.7ZM154.244 84.076L154.467 83.1012L153.52 82.8845L153.276 83.825L154.244 84.076ZM173.596 88.504L174.456 89.0151L175.157 87.8353L173.819 87.5292L173.596 88.504ZM164.248 104.084L163.998 105.052L164.708 105.235L165.096 104.614L164.248 104.084ZM148.34 99.984L147.428 99.5749L146.943 100.657L148.09 100.952L148.34 99.984ZM78.46 105.724V166.076H80.46V105.724H78.46ZM79.46 165.076H60.6V167.076H79.46V165.076ZM61.6 166.076V123.928H59.6V166.076H61.6ZM60.6 122.928H42.232V124.928H60.6V122.928ZM43.232 123.928V105.724H41.232V123.928H43.232ZM42.232 106.724H79.46V104.724H42.232V106.724ZM78.5934 158.867C85.0774 170.129 97.1535 174.942 114.189 175.603L114.267 173.605C97.5185 172.954 86.3066 168.255 80.3266 157.869L78.5934 158.867ZM114.178 175.603C133.902 176.589 172.813 176.096 195.651 174.289L195.493 172.295C172.739 174.096 133.914 174.587 114.278 173.605L114.178 175.603ZM194.671 172.858C192.507 177.353 189.352 186.473 188.514 192.339L190.494 192.621C191.296 187.007 194.373 178.087 196.473 173.726L194.671 172.858ZM189.456 191.481C168.979 192.464 134.081 192.791 114.113 191.809L114.015 193.807C134.063 194.793 169.029 194.464 189.552 193.479L189.456 191.481ZM114.106 191.809C94.58 190.995 81.6374 186.295 72.0488 173.989L70.4712 175.219C80.5626 188.169 94.188 192.981 114.022 193.807L114.106 191.809ZM70.5619 173.888C64.0206 180.266 57.1488 186.483 48.96 193.526L50.264 195.042C58.4752 187.981 65.3794 181.734 71.9581 175.32L70.5619 173.888ZM50.5139 193.852L41.1659 174.336L39.3621 175.2L48.7101 194.716L50.5139 193.852ZM40.8048 175.609C47.73 171.157 55.8003 165.228 63.0476 159.133L61.7604 157.603C54.5757 163.644 46.574 169.523 39.7232 173.927L40.8048 175.609ZM62.404 159.368H79.46V157.368H62.404V159.368ZM43.3127 57.8243L58.4007 46.8364L57.2233 45.2196L42.1353 56.2076L43.3127 57.8243ZM57.2009 46.8196C66.5146 54.009 77.8943 64.9176 82.8892 72.4906L84.5588 71.3894C79.3857 63.5464 67.8054 52.4789 58.4231 45.2364L57.2009 46.8196ZM83.1151 71.1468L66.8791 83.6108L68.0969 85.1972L84.3329 72.7332L83.1151 71.1468ZM68.3638 83.9214C63.844 75.7187 52.7376 64.3055 43.3759 56.2577L42.0721 57.7743C51.4064 65.7985 62.276 77.0173 66.6122 84.8866L68.3638 83.9214ZM104.597 88.9899L121.489 85.3819L121.071 83.4261L104.179 87.0341L104.597 88.9899ZM120.43 84.9314C123.34 89.6185 126.076 95.9127 127.03 100.045L128.978 99.5951C127.964 95.1993 125.124 88.7015 122.13 83.8766L120.43 84.9314ZM127.782 98.8449L109.742 102.945L110.186 104.895L128.226 100.795L127.782 98.8449ZM110.957 103.805C110.446 99.3699 107.926 92.5209 105.27 87.5414L103.506 88.4826C106.098 93.3431 108.498 99.9421 108.971 104.035L110.957 103.805ZM96.188 52.44H182.288V50.44H96.188V52.44ZM181.288 51.44V65.052H183.288V51.44H181.288ZM182.288 64.052H96.188V66.052H182.288V64.052ZM97.188 65.052V51.44H95.188V65.052H97.188ZM94.384 123.124H184.42V121.124H94.384V123.124ZM183.42 122.124V135.736H185.42V122.124H183.42ZM184.42 134.736H94.384V136.736H184.42V134.736ZM95.384 135.736V122.124H93.384V135.736H95.384ZM87.66 101.968H190.488V99.968H87.66V101.968ZM189.488 100.968V114.908H191.488V100.968H189.488ZM190.488 113.908H87.66V115.908H190.488V113.908ZM88.66 114.908V100.968H86.66V114.908H88.66ZM85.2 74.252H192.456V72.252H85.2V74.252ZM191.456 73.252V87.52H193.456V73.252H191.456ZM192.456 86.52H85.2V88.52H192.456V86.52ZM86.2 87.52V73.252H84.2V87.52H86.2ZM87.496 144.608H190.816V142.608H87.496V144.608ZM189.816 143.608V157.876H191.816V143.608H189.816ZM190.816 156.876H87.496V158.876H190.816V156.876ZM88.496 157.876V143.608H86.496V157.876H88.496ZM128.66 42.764H148.176V40.764H128.66V42.764ZM147.176 41.764V82.272H149.176V41.764H147.176ZM148.176 81.272H128.66V83.272H148.176V81.272ZM129.66 82.272V41.764H127.66V82.272H129.66ZM128.66 108.856H148.176V106.856H128.66V108.856ZM147.176 107.856V168.7H149.176V107.856H147.176ZM148.176 167.7H128.66V169.7H148.176V167.7ZM129.66 168.7V107.856H127.66V168.7H129.66ZM154.021 85.0508L173.373 89.4788L173.819 87.5292L154.467 83.1012L154.021 85.0508ZM172.736 87.9929C169.123 94.0699 165.852 99.6304 163.4 103.554L165.096 104.614C167.564 100.666 170.853 95.0741 174.456 89.0151L172.736 87.9929ZM164.498 103.116L148.59 99.0156L148.09 100.952L163.998 105.052L164.498 103.116ZM149.253 100.393C151.393 95.6176 154.043 88.8347 155.212 84.327L153.276 83.825C152.149 88.1733 149.551 94.8384 147.428 99.5749L149.253 100.393Z" fill="black" mask="url(#path-2-outside-1_605_3)"/>
</svg>
