<svg width="229" height="243" viewBox="0 0 229 243" fill="none" xmlns="http://www.w3.org/2000/svg">
<rect width="229" height="243" rx="32" fill="white"/>
<path d="M83.92 109.248V156.352H69.2V123.456H54.864V109.248H83.92ZM83.92 150.336C88.784 158.784 97.872 162.496 111.056 163.008C126.416 163.776 156.752 163.392 174.544 161.984C172.88 165.44 170.448 172.48 169.808 176.96C153.808 177.728 126.544 177.984 110.928 177.216C95.568 176.576 85.2 172.864 77.52 163.008C72.4 168 67.024 172.864 60.624 178.368L53.328 163.136C58.704 159.68 64.976 155.072 70.608 150.336H83.92ZM55.248 71.232L67.024 62.656C74.32 68.288 83.28 76.864 87.248 82.88L74.576 92.608C71.12 86.336 62.544 77.504 55.248 71.232ZM103.376 95.424L116.56 92.608C118.864 96.32 121.04 101.312 121.808 104.64L107.728 107.84C107.344 104.512 105.424 99.264 103.376 95.424ZM96.976 66.88H164.176V77.504H96.976V66.88ZM95.568 122.048H165.84V132.672H95.568V122.048ZM90.32 105.536H170.576V116.416H90.32V105.536ZM88.4 83.904H172.112V95.04H88.4V83.904ZM90.192 138.816H170.832V149.952H90.192V138.816ZM122.32 59.328H137.552V90.944H122.32V59.328ZM122.32 110.912H137.552V158.4H122.32V110.912ZM142.288 92.352L157.392 95.808C154.576 100.544 152.016 104.896 150.096 107.968L137.68 104.768C139.344 101.056 141.392 95.808 142.288 92.352Z" fill="#FF0000"/>
</svg>
