<svg width="122" height="120" viewBox="0 0 122 120" fill="none" xmlns="http://www.w3.org/2000/svg">
<path d="M30.92 50.248V97.352H16.2V64.456H1.864V50.248H30.92ZM30.92 91.336C35.784 99.784 44.872 103.496 58.056 104.008C73.416 104.776 103.752 104.392 121.544 102.984C119.88 106.44 117.448 113.48 116.808 117.96C100.808 118.728 73.544 118.984 57.928 118.216C42.568 117.576 32.2 113.864 24.52 104.008C19.4 109 14.024 113.864 7.624 119.368L0.328 104.136C5.704 100.68 11.976 96.072 17.608 91.336H30.92ZM2.248 12.232L14.024 3.656C21.32 9.28799 30.28 17.864 34.248 23.88L21.576 33.608C18.12 27.336 9.544 18.504 2.248 12.232ZM50.376 36.424L63.56 33.608C65.864 37.32 68.04 42.312 68.808 45.64L54.728 48.84C54.344 45.512 52.424 40.264 50.376 36.424ZM43.976 7.88H111.176V18.504H43.976V7.88ZM42.568 63.048H112.84V73.672H42.568V63.048ZM37.32 46.536H117.576V57.416H37.32V46.536ZM35.4 24.904H119.112V36.04H35.4V24.904ZM37.192 79.816H117.832V90.952H37.192V79.816ZM69.32 0.327995H84.552V31.944H69.32V0.327995ZM69.32 51.912H84.552V99.4H69.32V51.912ZM89.288 33.352L104.392 36.808C101.576 41.544 99.016 45.896 97.096 48.968L84.68 45.768C86.344 42.056 88.392 36.808 89.288 33.352Z" fill="white"/>
</svg>
