<svg xmlns="http://www.w3.org/2000/svg" enable-background="new 0 0 32 32" version="1" viewBox="0 0 32 32"><path d="M25.7319279,7.0894332c-1.2673759-1.1671853-2.9320927-1.7443552-4.6995678-1.6398826
	c-1.724659,0.1066136-3.3457031,0.8563356-4.563839,2.1112952c-0.7191086,0.7415328-1.2993832,1.440249-1.7763081,2.1250491
	c-1.1893425-0.9618244-2.6633635-1.4758396-4.1949196-1.4438343C8.7088366,8.276742,7.0548253,9.0230379,5.8405414,10.3430796
	c-1.1667566,1.2669477-1.7490649,2.9359455-1.6398821,4.6991405c0.1066136,1.7255163,0.8567638,3.3465586,2.1112947,4.5642672
	c1.1929827,1.1565876,2.299314,1.9807034,3.3793674,2.5313816c0.1194592,0.3257275,0.2854271,0.6208954,0.525094,0.8605633
	c0.1511431,0.1507149,0.71033,0.6448212,1.558959,0.7030506c0.0286865,0.0017128,0.057374,0.0025692,0.0860615,0.0025692
	c0.3266916,0,0.6431074-0.1310196,0.8803129-0.3665104l0.4025841-0.402586
	c0.002676-0.0025158,0.0062628-0.0033169,0.0088844-0.0058861l0.0313635-0.0314178
	c0.4331455-0.0407829,0.8418846-0.119833,1.2338724-0.2588806c0.2774525-0.0984783,0.572032-0.1156044,0.8563356-0.048811
	c0.2838755,0.0633678,0.5433445,0.206377,0.7497206,0.4127541l0.0482769,0.0481148
	c0.0009632,0.0009632,0.0012836,0.0023022,0.0022488,0.0032654l0.910284,0.910284l0.748436,0.7484379l0.1644173,0.1644154
	l0.9128532,0.9128532l0.4076157,0.4076157l0.0008564,0.0008564C19.454134,26.4323368,19.7666969,26.5625,20.0861092,26.5625
	c0.0248337,0,0.0496674-0.0008564,0.074501-0.0025692c0.4315929-0.0265465,1.0575752-0.1695538,1.5876465-0.699625
	c0.1070423-0.1070423,0.6439629-0.68507,0.7047634-1.5628128c0.0239773-0.3570919-0.1096115-0.7090454-0.3647995-0.9642334
	l-0.4016743-0.4016743c-0.0028896-0.0030518-0.0037994-0.0072269-0.0067978-0.0102234l-0.9128532-0.9128532l-0.9128532-0.9128532
	l-0.9128532-0.9128532c-0.0097942-0.0098495-0.0228004-0.0134354-0.0332375-0.0221577
	c-0.0063686-0.0072269-0.0096855-0.0173416-0.0164299-0.024086c-0.0295963-0.0295963-0.0471516-0.0650272-0.0740204-0.0964985
	c1.1215324,0.1017971,2.2908058-0.1542473,3.490799-0.7735386c1.1457767-0.5917263,2.3309441-1.5071487,3.6231537-2.7993603
	c1.2613831-1.2613811,1.9361744-2.9380856,1.9010658-4.7209759C27.7974091,9.9581566,27.0515404,8.3041449,25.7319279,7.0894332z
	 M5.0758343,14.9882708c-0.0941973-1.5225639,0.4063311-2.9616356,1.409956-4.0517511
	c1.0507236-1.141923,2.4816599-1.7875996,4.0286303-1.8175716c0.0372505-0.0008564,0.0740728-0.0012846,0.1113234-0.0012846
	c1.3183279,0,2.5762854,0.4585676,3.5876169,1.3033428c-0.138298,0.2342072-0.2628946,0.4654179-0.3720779,0.6914902
	c-0.7728424,1.5983505-0.9094276,3.1307621-0.4050465,4.5557051c0.0971947,0.2744551,0.114749,0.569891,0.0496674,0.8546219
	c-0.0321121,0.1421528-0.0840273,0.2780952-0.1599207,0.410614c-0.0757322,0.1322498-0.1751738,0.260807-0.3024998,0.3883476
	l-3.1457481,3.145319c-0.0757322,0.0754662-0.136693,0.1610985-0.1898928,0.2507458
	C9.6724815,20.7437,9.6607075,20.7703018,9.6473274,20.7971153c-0.0343075,0.0686131-0.0617104,0.1390476-0.0825834,0.2123699
	c-0.0051908,0.018198-0.0162163,0.0343609-0.0205517,0.0527725c-0.8323584-0.5000992-1.6964006-1.1877365-2.6216707-2.0851765
	C5.8251276,17.9118004,5.1691747,16.4949932,5.0758343,14.9882708z M12.1278629,19.4575386l0.2928133-0.2928658l0.8141079,0.8138924
	l0.8141069,0.8140011l-0.2928133,0.2928123l-0.7922173-0.7920036L12.1278629,19.4575386z M14.9609413,19.8796577
	l-0.2928667,0.2920113l-1.6274652-1.627037l0.2928667-0.2928677L14.9609413,19.8796577z M11.5079298,20.0776329l1.628108,1.6285362
	L13.050458,21.791748l-0.2068052,0.2064838l-1.6283216-1.6278934L11.5079298,20.0776329z M12.1226177,22.7166977
	c-0.076642,0.0753574-0.1823988,0.1224556-0.2864437,0.1096115c-0.5728884-0.0393925-0.9599524-0.4076157-1.0010557-0.4487209
	c-0.1811152-0.1815434-0.3052845-0.3990517-0.3785009-0.6662292c-0.0372505-0.1361561-0.0607996-0.2628937-0.0667944-0.3562355
	c-0.0029964-0.0479546,0.0052452-0.0960693,0.02355-0.1415615c0.0182505-0.045332,0.0464554-0.0879364,0.0834923-0.1247578
	c0-0.0008564,0.0004282-0.0008564,0.0004282-0.0008564l0.0980501-0.0976219l1.6266098,1.627037L12.1226177,22.7166977z
	 M14.9318266,21.6736813c-0.2011852,0-0.4024239,0.0248337-0.599328,0.0753574l0.1130362-0.1133575l0.5288944-0.529911
	c0.0014448-0.0013905,0.0035324-0.001873,0.0049238-0.0032654l0.9115686-0.9137096
	c0.001071-0.00107,0.001338-0.0024624,0.0023556-0.0035324l0.0451717-0.0452785
	c0.2063761-0.206377,0.4667025-0.3485279,0.7531462-0.4127541c0.1434364-0.0321121,0.2898159-0.0436726,0.4349651-0.0348949
	c0.1452026,0.0087776,0.2890663,0.0378933,0.4273643,0.0871315c0.0462437,0.0162716,0.0924854,0.0308285,0.1387272,0.0436745
	c0.0762138,0.2269287,0.1883945,0.4427242,0.3399658,0.6482449l-1.6698551,1.6698551
	c-0.2663193-0.1952457-0.569891-0.333971-0.8935852-0.4067593C15.2923431,21.6933765,15.1120853,21.6736813,14.9318266,21.6736813z
	 M18.8281517,24.5672379l1.627039-1.627037l0.2928658,0.2928677l-1.627037,1.627037L18.8281517,24.5672379z M18.2081661,23.9472523
	l-0.2928677-0.2928677l1.627037-1.627037l0.2928677,0.2928677L18.2081661,23.9472523z M18.9223499,21.4073601l-1.6268768,1.6268768
	l-0.2927074-0.293026l1.6267166-1.6267166L18.9223499,21.4073601z M21.1282692,25.2403183
	c-0.3356838,0.3356838-0.7407303,0.4273109-1.0224648,0.444437c-0.1078987,0.0154152-0.1918182-0.031683-0.2671757-0.1070404
	l-0.0976219-0.0976219l1.627037-1.627039l0.1001911,0.1001911c0.0753574,0.0753574,0.1164608,0.1823997,0.1096096,0.2843037
	C21.5375977,24.8147202,21.170229,25.1983585,21.1282692,25.2403183z M25.3114681,15.8471756
	c-1.227129,1.227129-2.3412209,2.0911713-3.4056454,2.6400814c-1.318758,0.6816425-2.5801392,0.8657551-3.7421875,0.5549049
	l-0.0950527-0.0256901c-0.074501-0.0188389-0.1490021-0.0376778-0.2235031-0.0642242
	c-0.4298801-0.1515713-0.8957272-0.180687-1.3448753-0.0813522c-0.1421509,0.0320053-0.2787895,0.081192-0.4129677,0.1387806
	c-0.0356445,0.0153065-0.0709152,0.0328083-0.1060781,0.0499878c-0.1088619,0.05336-0.2152615,0.1157131-0.3188782,0.1877518
	c-0.0191069,0.0132198-0.039712,0.0206585-0.0586586,0.0345211l-1.6702824-1.6707115
	c0.0410509-0.0557671,0.0689354-0.1195107,0.1049013-0.178545c0.0299177-0.0491867,0.0603714-0.0963917,0.0867043-0.1475582
	c0.0929117-0.1802044,0.1710529-0.3679028,0.2164383-0.5679092c0.1014757-0.4470081,0.0740728-0.9107132-0.078783-1.3418779
	c-0.4230289-1.1954451-0.2992887-2.5013561,0.3682241-3.8809128c0.1438646-0.297576,0.3181286-0.6079979,0.5180836-0.9218445
	c0.4885387-0.7672768,1.1260805-1.552536,1.9485903-2.401165c1.0661373-1.0973935,2.4825172-1.7533464,3.9896679-1.8466868
	c1.5071507-0.0933409,2.96035,0.4063311,4.0504665,1.4095278c1.1423512,1.05158,1.7880268,2.4825168,1.8179989,4.029058
	C26.9864597,13.3059998,26.4024391,14.7562037,25.3114681,15.8471756z"/><path d="M24.1066036,19.542263c-0.8246498,0-1.4960175,0.6705093-1.4960175,1.4951611
	s0.6713676,1.4960175,1.4960175,1.4960175c0.8246517,0,1.4960175-0.6713657,1.4960175-1.4960175
	S24.9312553,19.542263,24.1066036,19.542263z M24.1066036,21.6565552c-0.3416767,0-0.6191311-0.2774525-0.6191311-0.6191311
	c0-0.3408222,0.2774544-0.6182747,0.6191311-0.6182747c0.3416786,0,0.6191311,0.2774525,0.6191311,0.6182747
	C24.7257347,21.3791027,24.4482822,21.6565552,24.1066036,21.6565552z"/></svg>