<svg xmlns="http://www.w3.org/2000/svg" viewBox="0 0 50 50"><path fill="#fc6" d="M28.4 39.3c-13.9-2.1-9.4-4-21.7 8.9-.6.7-1.7.9-2.5.4-1-.6-1.8-.7-2.2-1.6l-.7-1.4c-.4-.8-.3-1.8.4-2.5 12.9-12.3 11-7.8 8.9-21.7C9.7 16 15.8 6 25.1 2.2c12.1-5 28 9.6 22.6 22.6-3.9 9.2-13.9 15.3-19.3 14.5z"/><path fill="#ed7161" d="M47.7 24.8C53 11.8 37.3-2.9 25.1 2.2c-8.4 3.5-14.1 12-14.6 17.6l19.6 19.6c5.6-.5 14.1-6.2 17.6-14.6z"/><path fill="#E7B95D" d="m22.5 31.7-4.3-4.3-6.6 5.7c-.9 2.1-2 2.4-9.9 10-.7.6-.9 1.7-.4 2.5.6 1.1.7 1.8 1.6 2.3l1.4.7c.8.4 1.8.3 2.5-.4 7.5-7.8 7.9-9 10-9.9l5.7-6.6z" class="st8"/><path fill="#E7B95D" d="M47.7 24.8c2.5-6.2.1-13.4-4.6-18L2.3 47.5c.4.4.7.4 1.9 1.1.8.4 1.8.3 2.5-.4 12.3-12.9 7.8-11 21.7-8.9 5.4.8 15.4-5.3 19.3-14.5z" class="st8"/><path fill="#d56455" d="M47.7 24.8c2.5-6.2.1-13.4-4.6-18L20.3 29.5l9.8 9.8c5.6-.4 14.1-6.1 17.6-14.5z"/><path fill="#e0ae55" d="m16.8 38.3 5.7-6.6-2.2-2.2-18 18c.4.4.7.4 1.9 1.1.8.4 1.8.3 2.5-.4 7.5-7.8 7.9-9.1 10.1-9.9z"/><path fill="#e6e6e6" d="M49 32.6c0 4.2-3.4 7.6-7.5 7.6-2.8 0-5.2-1.5-6.5-3.7-.7-1.1-1.1-2.4-1.1-3.9 0-4.2 3.4-7.5 7.6-7.5 1.4 0 2.6.4 3.7 1 2.3 1.2 3.8 3.6 3.8 6.5z"/><path fill="#fff" d="M45.2 26c-1.1-.6-2.4-1-3.7-1-4.2 0-7.6 3.4-7.6 7.5 0 1.4.4 2.7 1.1 3.9 1.1.6 2.4 1 3.8 1 4.2 0 7.5-3.4 7.5-7.5 0-1.4-.4-2.8-1.1-3.9z"/></svg>