<svg xmlns="http://www.w3.org/2000/svg" enable-background="new 0 0 103 103" viewBox="0 0 103 103"><path fill="#2f1212" d="M51.4951172,56.4077148c-2.7036133,0-4.902832-2.1992188-4.902832-4.9023438
			c0-2.7089844,2.1992188-4.9130859,4.902832-4.9130859c2.7089844,0,4.9125977,2.2041016,4.9125977,4.9130859
			C56.4077148,54.2084961,54.2041016,56.4077148,51.4951172,56.4077148z M51.4951172,48.5922852
			c-1.6005859,0-2.902832,1.3066406-2.902832,2.9130859c0,1.6005859,1.3022461,2.9023438,2.902832,2.9023438
			c1.605957,0,2.9125977-1.3017578,2.9125977-2.9023438C54.4077148,49.8989258,53.1010742,48.5922852,51.4951172,48.5922852z" opacity=".07"/><path fill="#3f4040" d="M51.3470306,61.6721458L28.0667229,92.1570206c-2.5492973,3.3382263-7.3726444,3.865303-10.5827408,1.1564331
			l-0.0000114-0.0000076c-3.2100964-2.7088699-3.5016117-7.5521622-0.6396027-10.626503l26.1360054-28.0750732
			L51.3470306,61.6721458z"/><path fill="#fff" d="M22.9678402,93.7103958c0.3799438,0.3299561,0.789978,0.5999756,1.2199707,0.8299561
			c-2.1900024,0.5300293-4.5900269,0.039917-6.460022-1.5300293c-1.7299795-1.4599609-2.6099844-3.5299072-2.6099844-5.6199951
			c0-1.7900391,0.6500244-3.5799561,1.9700308-5l26.1300068-28.0799561l3.3099976,2.789917L22.3278255,83.0802689
			c-1.3200073,1.420166-1.9700317,3.2200928-1.9700317,5.0100098
			C20.3577938,90.1803665,21.2377987,92.2504349,22.9678402,93.7103958z" opacity=".4"/><path fill="#ef4d4d" d="M33.4476814,49.9236259l24.117012,20.3513451
			c9.8172874,0.6485977,20.3326683-3.6831512,27.7346535-12.4547501
			c11.6531525-13.8093681,11.1812134-33.3536682-1.0306702-43.6587715
			C72.0568542,3.856396,52.7212486,6.6859331,41.0680962,20.4953003
			C33.666111,29.2668953,31.1603985,40.3576775,33.4476814,49.9236259z"/><path fill="#fff" d="M92.8355255,28.0403519c-5.3999634-5.1099854-12.6799927-8.2399902-20.6900024-8.2399902
			c-16.6399536,0-30.1199951,13.4899902-30.1199951,30.1199951c0,2.8399658,0.3900146,5.5899658,1.1400146,8.1999512
			l-9.7199707-8.1999512c-2.290041-9.5600586,0.2199707-20.6500244,7.6199951-29.4299316
			C52.7255402,6.6903763,72.0555573,3.8602982,84.2655182,14.160347
			C88.6255646,17.8402786,91.4855499,22.6903763,92.8355255,28.0403519z" opacity=".2"/><path fill="#e2e2e2" d="M57.5303535 70.2460022c-4.7410393-1.7670517-9.1742363-1.9236526-13.1204948.4644089l-9.2000237-7.7635155c1.334156-4.4075508.3752403-8.7351761-1.7601814-13.0216026L57.5303535 70.2460022zM93.7312622 53.473938c0 5.9573898-4.8297119 10.7949829-10.7871933 10.7949829-5.9652252 0-10.7949829-4.8375931-10.7949829-10.7949829 0-5.9574852 4.8297577-10.7949791 10.7949829-10.7949791C88.9015503 42.6789589 93.7312622 47.5164528 93.7312622 53.473938z"/><path fill="#fff" d="M92.7355499,48.9403763c-1.6500244-1.0300293-3.5999756-1.6199951-5.6900024-1.6199951
			c-5.960022,0-10.789978,4.8399658-10.789978,10.7999268c0,1.6101074,0.3499756,3.1400146,0.9899902,4.5100098
			c-3.0599976-1.8898926-5.1000366-5.2900391-5.1000366-9.1599121c0-5.9500732,4.8300171-10.7900391,10.8000488-10.7900391
			C87.2855377,42.6803665,91.025528,45.2404251,92.7355499,48.9403763z" opacity=".4"/><path fill="#2f1212" d="M96.0830078 94.0465012H27.6463013c.0009766-.0008545.0021362-.0014648.0031128-.0023193.4400024-.3800049.8499756-.8099365 1.210022-1.2800293l16.25-21.2799072c3.1900024-1.4799805 7.2399902-1.5800781 12.0299683-.3000488.1099854.0500488.2399902.0799561.3599854.0899658.6700439.0400391 1.3500366.0699463 2.0200195.0699463 6.9799805 0 13.9299927-2.3598633 19.8300171-6.6398926 1.1300049.3599854 2.3399658.5599365 3.5899658.5599365 6.5 0 11.7900391-5.289917 11.7900391-11.789917 0-2.4200439-.7300415-4.6800537-2-6.5600586 1.4199829-3.9599609 2.0999756-8.0999756 2-12.2600098-.2000122-8.540041-3.6900024-16.079958-9.8200073-21.2600117-6.1199951-5.1699219-14.1500244-7.3399658-22.6000366-6.0999756-8.3999634 1.2299805-16.2099609 5.6900635-22.0099487 12.5599365-7.3500366 8.710083-10.2800293 20.040041-7.8200073 30.3000507.0199585.0700684.039978.1500244.0799561.2199707.0100098.0300293.0300293.0500488.0400391.0800781 2.2199707 4.5 2.7699585 8.3399658 1.7000122 12.0200195L16.109436 82.0042648c-1.5700073 1.6899414-2.3600464 3.8898926-2.2200317 6.1899414s1.1799927 4.3699951 2.9199829 5.8499756l.0023193.0023193H12.074707c-.5522461 0-1 .4472656-1 1s.4477539 1 1 1h84.0083008c.5522461 0 1-.4472656 1-1S96.6352539 94.0465012 96.0830078 94.0465012zM92.7294312 53.4742355c0 5.3999023-4.3900146 9.789917-9.7900391 9.789917-5.4297333 0-9.789978-4.4177475-9.789978-9.789917 0-5.4000244 4.3900146-9.7900391 9.789978-9.7900391C88.3972473 43.6841965 92.7294312 48.1299248 92.7294312 53.4742355zM41.8294067 21.1441555c5.4799805-6.5 12.8599854-10.7099609 20.7700195-11.8699951 7.8699951-1.1500244 15.3399658.8499756 21.0199585 5.6500244 5.6900024 4.8000488 8.9300537 11.8200684 9.1100464 19.7800312.0799561 3.5100098-.4299927 7.0200195-1.5 10.3999023-2.1300049-2.119873-5.0599976-3.4199219-8.2900391-3.4199219-6.5 0-11.789978 5.2900391-11.789978 11.7900391 0 4.4099121 2.4400024 8.2700195 6.039978 10.289917-5.789978 3.9100342-12.539978 5.9100342-19.2299805 5.5300293C32.018364 47.4106827 44.1782951 57.6697121 34.3494263 49.3741379 32.1793823 39.8142014 34.9594116 29.2841702 41.8294067 21.1441555zM35.9194336 53.3142014c.883812.7624702 17.8699379 15.0856705 17.9699707 15.1700439-2.4099731-.3100586-4.6300049-.25-6.6400146.1899414-.9400024.1999512-1.8299561.4899902-2.6799927.8599854l-.2999878-.25c-.75037-.6338425 2.8316689 2.3919296-7.9199829-6.6900635.2399902-.9199219.3800049-1.8598633.4400024-2.7999268C36.9194336 57.7142258 36.6293945 55.5742111 35.9194336 53.3142014zM15.8894043 88.0742111c-.1099854-1.75.4899902-3.4200439 1.6900024-4.710083l17.7200317-19.0300293 7.7599487 6.5400391-15.789978 20.6800537c-1.209425 1.5859604-3.0524597 2.4899902-5.0800171 2.4899902-1.4899902 0-2.9099731-.5200195-4.0599976-1.5C16.7894287 91.4141769 15.9893799 89.8242111 15.8894043 88.0742111zM8.5996094 94.0465012H6.9169922c-.5522461 0-1 .4472656-1 1s.4477539 1 1 1h1.6826172c.5522461 0 1-.4472656 1-1S9.1518555 94.0465012 8.5996094 94.0465012z"/></svg>